{
  "runId": "2026-02-22",
  "date": "2026-02-22",
  "createdAt": "2026-02-22T06:23:10.107Z",
  "updatedAt": "2026-02-22T06:54:51.738Z",
  "status": "ERROR",
  "regions": {
    "KR": {
      "region": "KR",
      "trends": {
        "status": "DONE",
        "lastError": "Trend API 오류(503): {\"region\":\"KR\",\"days\":7,\"keywords\":[\"변우석\",\"선재 업고 튀어\",\"챌린지\",\"틱톡 챌린지\",\"탕후루\",\"아이브\",\"르세라핌\",\"뉴진스\",\"밈\",\"간단 레시피\",\"편의점 신상\",\"마라탕\",\"맛집 추천\",\"카페 추천\",\"OOTD\",\"MBTI\",\"인생네컷\",\"꿀팁\",\"유행템\",\"아이돌 직캠\",\"드라마 명장면\",\"ASMR\",\"여름 코디\",\"다이어트 식단\",\"운동 루틴\"],\"debug\":{\"rawItems\":0,\"candidates\":0,\"trafficAvg\":null,\"trafficMax\":null,\"llmUsed\":true,\"python\":{\"pythonOk\":false,\"reason\":\"PYTHON_FAILED\",\"attempts\":1,\"circuit\":{\"consecutive429\":0,\"openUntilMs\":0},\"error\":\"pytrends_fetch 실패(code=1): Traceback (most recent call last):\\n  File \\\"/home/hjj/2601_VPI_V3__shorts_pipline/services/trend-service/pytrends_fetch.py\\\", line 28, in <module>\\n    from pytrends.request import TrendReq\\nModuleNotFoundError: No module named 'pytrends'\\n\"}}}",
        "keywords": [
          "쇼트 트랙 여자 계주",
          "1 등 들",
          "민와와",
          "파피 플레이 타임 5",
          "충주시",
          "김길리",
          "손흥 민",
          "유혜 주",
          "단종",
          "레이디 두아",
          "박지훈",
          "떡국 맛있게 끓이는 법",
          "왕 과 사는 남자",
          "리쥬 라이크",
          "빅 보스",
          "하츠 투 하츠",
          "봄동 비빔밥",
          "베베 핀",
          "놀면 뭐하니",
          "우주 를 줄게"
        ],
        "updatedAt": "2026-02-22T06:37:24.995Z"
      },
      "videos": [
        {
          "slot": 1,
          "status": "DONE",
          "error": "[KR] 트렌드 키워드가 비어 있습니다 (status: ERROR)",
          "originalKeyword": "쇼트 트랙 여자 계주",
          "queryEngineering": {
            "target_language_confirmed": "한국어",
            "clusters": [
              {
                "name": "경기 하이라이트 및 결과",
                "logic": "'쇼트 트랙 여자 계주' 경기의 주요 장면, 금메달 획득, 그리고 관련 동계올림픽 이벤트에 초점을 맞춥니다. 경기 자체의 내용과 결과에 대한 정보를 찾는 사용자들을 위한 군집입니다."
              },
              {
                "name": "선수별 활약 및 인터뷰",
                "logic": "주요 선수들(김길리, 최민정, 심석희 등)의 개인적인 활약상, 경기 후 인터뷰, 그리고 선수들 간의 관계에 대한 콘텐츠를 다룹니다. 특정 선수에 대한 팬심이나 비하인드 스토리에 관심 있는 사용자들을 위한 군집입니다."
              },
              {
                "name": "해외 반응 및 분석",
                "logic": "경기에 대한 해외 시청자들의 반응, 외국 해설, 그리고 스포츠 과학적 분석 등 외부적인 관점과 심층적인 정보에 중점을 둡니다. 경기의 파급력이나 전문적인 해설을 원하는 사용자들을 위한 군집입니다."
              }
            ],
            "validationHistory": [
              {
                "q": "쇼트 트랙 여자 계주|금메달|2026 동계올림픽 -dhflavlr -kpop -천안",
                "theme": "쇼트 트랙 여자 계주 경기 하이라이트",
                "status": "PASS"
              }
            ]
          },
          "keyword": "쇼트 트랙 여자 계주|금메달|2026 동계올림픽 -dhflavlr -kpop -천안",
          "selectedSourceVideos": [
            {
              "videoId": "0V6oWe8XPpA",
              "title": "심석희-최민정 여자 계주 시상식 리허설에선? #JTBC #Shorts",
              "channelTitle": "JTBC News",
              "predicted7d": 752934,
              "delta": 420873
            },
            {
              "videoId": "peXMHboWsIQ",
              "title": "금메달 순간에 바로잡힌 태극기… IOC 결국 사과",
              "channelTitle": "1위는?",
              "predicted7d": 362192,
              "delta": 118892
            },
            {
              "videoId": "wicJ3C-S1PQ",
              "title": "16년 만에 다시 되찾은 쇼트트랙 금메달",
              "channelTitle": "펀한거 주웠다",
              "predicted7d": 168898,
              "delta": 63837
            },
            {
              "videoId": "fROfb8h8-_E",
              "title": "장하다! 대한건아 #동계올림픽#쇼트트랙#여자1500m",
              "channelTitle": "스카이필TV",
              "predicted7d": 58652,
              "delta": 48552
            }
          ],
          "selectedTheme": "Unknown",
          "videoProcessor": {
            "status": "DONE"
          },
          "outputFile": "final.mp4",
          "outputFileAbs": "/home/hjj/2601_VPI_V3__shorts_pipline/data/work/2026-02-22/KR_video_01/final.mp4",
          "uploadMeta": {
            "title": "2026 쇼트트랙 여자 계주 금메달! 역대급 명장면 모음",
            "description": "2026-02-22_KR_1\n2026 동계올림픽 쇼트트랙 여자 계주 금메달의 감동적인 순간들을 모았습니다! 시상식 비하인드부터 태극기 논란, 그리고 16년 만의 쾌거까지, 놓칠 수 없는 명장면들을 지금 바로 확인하세요!",
            "tags": [
              "쇼트트랙",
              "여자계주",
              "금메달",
              "2026동계올림픽",
              "심석희",
              "최민정",
              "태극기논란",
              "스포츠명장면",
              "대한민국"
            ]
          },
          "upload": {
            "status": "DONE",
            "youtubeVideoId": "RiAswniIdSY"
          },
          "updatedAt": "2026-02-22T06:38:13.236Z"
        },
        {
          "slot": 2,
          "status": "DONE",
          "error": "Video Processor API 오류(500): {\"ok\":false,\"error\":\"Command failed: ffmpeg -y -i \\\"/home/hjj/2601_VPI_V3__shorts_pipline/data/work/2026-02-22/KR_video_02/outputs/highlight_1.mp4\\\" -i \\\"/home/hjj/2601_VPI_V3__shorts_pipline/data/work/2026-02-22/KR_video_02/outputs/highlight_2.mp4\\\" -i \\\"/home/hjj/2601_VPI_V3__shorts_pipline/data/work/2026-02-22/KR_video_02/outputs/highlight_3.mp4\\\" -i \\\"/home/hjj/2601_VPI_V3__shorts_pipline/data/work/2026-02-22/KR_video_02/outputs/highlight_4.mp4\\\" -i \\\"/home/hjj/2601_VPI_V3__shorts_pipline/data/work/2026-02-22/KR_video_02/outputs/tts_1.mp3\\\" -i \\\"/home/hjj/2601_VPI_V3__shorts_pipline/data/work/2026-02-22/KR_video_02/outputs/tts_2.mp3\\\" -i \\\"/home/hjj/2601_VPI_V3__shorts_pipline/data/work/2026-02-22/KR_video_02/outputs/tts_3.mp3\\\" -i \\\"/home/hjj/2601_VPI_V3__shorts_pipline/data/work/2026-02-22/KR_video_02/outputs/tts_4.mp3\\\" -filter_complex \\\"[0:v]scale=1080:1920:force_original_aspect_ratio=increase,crop=1080:1920,fps=30,format=yuv420p,drawbox=y=0:color=black@0.6:width=iw:height=ih:t=fill:enable='lt(t,1.2)',drawbox=y=130:color=black@0.4:width=iw:height=220:t=fill:enable='gt(t,1.2)',drawtext=text='1. 금메달 리허설 직캠':fontfile='/home/hjj/2601_VPI_V3__shorts_pipline/data/assets/memomentKkukkkuk.ttf':fontcolor=white:fontsize='if(lt(t,0.8), 85, if(lt(t,1.2), 85-(85-55)*(t-0.8)/0.4, 55))':line_spacing=15:x=(w-text_w)/2:y='if(lt(t,0.8), (h-th)/2, if(lt(t,1.2), (h-th)/2-((h-th)/2-180)*(t-0.8)/0.4, 180))':expansion=none,fade=t=out:st=10.9:d=0.3[v0];[4:a]adelay=200|200,aformat=sample_fmts=fltp:sample_rates=44100:channel_layouts=stereo[tts0];[0:a]aformat=sample_fmts=fltp:sample_rates=44100:channel_layouts=stereo,volume=enable='lt(t,0.8)':volume=0.2,afade=t=in:st=0.8:d=1.5[bg0];[bg0][tts0]amix=inputs=2:duration=first:dropout_transition=2,afade=t=out:st=10.9:d=0.3[a0];[1:v]scale=1080:1920:force_original_aspect_ratio=increase,crop=1080:1920,fps=30,format=yuv420p,drawbox=y=0:color=black@0.6:width=iw:height=ih:t=fill:enable='lt(t,1.2)',drawbox=y=130:color=black@0.4:width=iw:height=220:t=fill:enable='gt(t,1.2)',drawtext=text='2. 16년 만의 전설 귀환':fontfile='/home/hjj/2601_VPI_V3__shorts_pipline/data/assets/memomentKkukkkuk.ttf':fontcolor=white:fontsize='if(lt(t,0.8), 85, if(lt(t,1.2), 85-(85-55)*(t-0.8)/0.4, 55))':line_spacing=15:x=(w-text_w)/2:y='if(lt(t,0.8), (h-th)/2, if(lt(t,1.2), (h-th)/2-((h-th)/2-180)*(t-0.8)/0.4, 180))':expansion=none,fade=t=out:st=10.9:d=0.3[v1];[5:a]adelay=200|200,aformat=sample_fmts=fltp:sample_rates=44100:channel_layouts=stereo[tts1];[1:a]aformat=sample_fmts=fltp:sample_rates=44100:channel_layouts=stereo,volume=enable='lt(t,0.8)':volume=0.2,afade=t=in:st=0.8:d=1.5[bg1];[bg1][tts1]amix=inputs=2:duration=first:dropout_transition=2,afade=t=out:st=10.9:d=0.3[a1];[2:v]scale=1080:1920:force_original_aspect_ratio=increase,crop=1080:1920,fps=30,format=yuv420p,drawbox=y=0:color=black@0.6:width=iw:height=ih:t=fill:enable='lt(t,1.2)',drawbox=y=130:color=black@0.4:width=iw:height=220:t=fill:enable='gt(t,1.2)',drawtext=text='3. 폐막식 엔딩요정 최민정':fontfile='/home/hjj/2601_VPI_V3__shorts_pipline/data/assets/memomentKkukkkuk.ttf':fontcolor=white:fontsize='if(lt(t,0.8), 85, if(lt(t,1.2), 85-(85-55)*(t-0.8)/0.4, 55))':line_spacing=15:x=(w-text_w)/2:y='if(lt(t,0.8), (h-th)/2, if(lt(t,1.2), (h-th)/2-((h-th)/2-180)*(t-0.8)/0.4, 180))':expansion=none,fade=t=out:st=10.9:d=0.3[v2];[6:a]adelay=200|200,aformat=sample_fmts=fltp:sample_rates=44100:channel_layouts=stereo[tts2];[2:a]aformat=sample_fmts=fltp:sample_rates=44100:channel_layouts=stereo,volume=enable='lt(t,0.8)':volume=0.2,afade=t=in:st=0.8:d=1.5[bg2];[bg2][tts2]amix=inputs=2:duration=first:dropout_transition=2,afade=t=out:st=10.9:d=0.3[a2];[3:v]scale=1080:1920:force_original_aspect_ratio=increase,crop=1080:1920,fps=30,format=yuv420p,drawbox=y=0:color=black@0.6:width=iw:height=ih:t=fill:enable='lt(t,1.2)',drawbox=y=130:color=black@0.4:width=iw:height=220:t=fill:enable='gt(t,1.2)',drawtext=text='4. 계주 금메달 왕좌 탈환':fontfile='/home/hjj/2601_VPI_V3__shorts_pipline/data/assets/memomentKkukkkuk.ttf':fontcolor=white:fontsize='if(lt(t,0.8), 85, if(lt(t,1.2), 85-(85-55)*(t-0.8)/0.4, 55))':line_spacing=15:x=(w-text_w)/2:y='if(lt(t,0.8), (h-th)/2, if(lt(t,1.2), (h-th)/2-((h-th)/2-180)*(t-0.8)/0.4, 180))':expansion=none,fade=t=out:st=10.9:d=0.3[v3];[7:a]adelay=200|200,aformat=sample_fmts=fltp:sample_rates=44100:channel_layouts=stereo[tts3];[3:a]aformat=sample_fmts=fltp:sample_rates=44100:channel_layouts=stereo,volume=enable='lt(t,0.8)':volume=0.2,afade=t=in:st=0.8:d=1.5[bg3];[bg3][tts3]amix=inputs=2:duration=first:dropout_transition=2,afade=t=out:st=10.9:d=0.3[a3];[v0][a0][v1][a1][v2][a2][v3][a3]concat=n=4:v=1:a=1[vout][aout]\\\" -map \\\"[vout]\\\" -map \\\"[aout]\\\" -c:v libx264 -preset medium -crf 18 -pix_fmt yuv420p -c:a aac -b:a 192k \\\"/home/hjj/2601_VPI_V3__shorts_pipline/data/work/2026-02-22/KR_video_02/final.mp4\\\"\\nffmpeg version 6.0.1 Copyright (c) 2000-2023 the FFmpeg developers\\n  built with gcc 12.3.0 (conda-forge gcc 12.3.0-2)\\n  configuration: --prefix=/home/hjj/miniconda3 --cc=/home/conda/feedstock_root/build_artifacts/ffmpeg_1699623786183/_build_env/bin/x86_64-conda-linux-gnu-cc --cxx=/home/conda/feedstock_root/build_artifacts/ffmpeg_1699623786183/_build_env/bin/x86_64-conda-linux-gnu-c++ --nm=/home/conda/feedstock_root/build_artifacts/ffmpeg_1699623786183/_build_env/bin/x86_64-conda-linux-gnu-nm --ar=/home/conda/feedstock_root/build_artifacts/ffmpeg_1699623786183/_build_env/bin/x86_64-conda-linux-gnu-ar --disable-doc --disable-openssl --enable-demuxer=dash --enable-hardcoded-tables --enable-libfreetype --enable-libfontconfig --enable-libopenh264 --enable-libdav1d --enable-gnutls --enable-libmp3lame --enable-libvpx --enable-libass --enable-pthreads --enable-vaapi --enable-gpl --enable-libx264 --enable-libx265 --enable-libaom --enable-libsvtav1 --enable-libxml2 --enable-pic --enable-shared --disable-static --enable-version3 --enable-zlib --enable-libopus --pkg-config=/home/conda/feedstock_root/build_artifacts/ffmpeg_1699623786183/_build_env/bin/pkg-config\\n  libavutil      58.  2.100 / 58.  2.100\\n  libavcodec     60.  3.100 / 60.  3.100\\n  libavformat    60.  3.100 / 60.  3.100\\n  libavdevice    60.  1.100 / 60.  1.100\\n  libavfilter     9.  3.100 /  9.  3.100\\n  libswscale      7.  1.100 /  7.  1.100\\n  libswresample   4. 10.100 /  4. 10.100\\n  libpostproc    57.  1.100 / 57.  1.100\\nInput #0, mov,mp4,m4a,3gp,3g2,mj2, from '/home/hjj/2601_VPI_V3__shorts_pipline/data/work/2026-02-22/KR_video_02/outputs/highlight_1.mp4':\\n  Metadata:\\n    major_brand     : isom\\n    minor_version   : 512\\n    compatible_brands: isomiso2mp41\\n    encoder         : Lavf60.3.100\\n  Duration: 00:00:11.20, start: 0.000000, bitrate: 1092 kb/s\\n  Stream #0:0[0x1](eng): Video: vp9 (Profile 0) (vp09 / 0x39307076), yuv420p(tv, bt709), 608x1080, 750 kb/s, SAR 1:1 DAR 76:135, 29.97 fps, 29.97 tbr, 16k tbn (default)\\n    Metadata:\\n      handler_name    : VideoHandler\\n      vendor_id       : [0][0][0][0]\\n  Stream #0:1[0x2](eng): Audio: aac (LC) (mp4a / 0x6134706D), 44100 Hz, stereo, fltp, 128 kb/s (default)\\n    Metadata:\\n      handler_name    : ISO Media file produced by Google Inc.\\n      vendor_id       : [0][0][0][0]\\nInput #1, mov,mp4,m4a,3gp,3g2,mj2, from '/home/hjj/2601_VPI_V3__shorts_pipline/data/work/2026-02-22/KR_video_02/outputs/highlight_2.mp4':\\n  Metadata:\\n    major_brand     : isom\\n    minor_version   : 512\\n    compatible_brands: isomiso2mp41\\n    encoder         : Lavf60.3.100\\n  Duration: 00:00:11.20, start: 0.000000, bitrate: 787 kb/s\\n  Stream #1:0[0x1](eng): Video: vp9 (Profile 0) (vp09 / 0x39307076), yuv420p(tv, bt709), 608x1080, 599 kb/s, SAR 1:1 DAR 76:135, 30 fps, 30 tbr, 16k tbn (default)\\n    Metadata:\\n      handler_name    : VideoHandler\\n      vendor_id       : [0][0][0][0]\\n  Stream #1:1[0x2](und): Audio: aac (LC) (mp4a / 0x6134706D), 44100 Hz, stereo, fltp, 127 kb/s (default)\\n    Metadata:\\n      handler_name    : ISO Media file produced by Google Inc.\\n      vendor_id       : [0][0][0][0]\\nInput #2, mov,mp4,m4a,3gp,3g2,mj2, from '/home/hjj/2601_VPI_V3__shorts_pipline/data/work/2026-02-22/KR_video_02/outputs/highlight_3.mp4':\\n  Metadata:\\n    major_brand     : isom\\n    minor_version   : 512\\n    compatible_brands: isomiso2mp41\\n    encoder         : Lavf60.3.100\\n  Duration: 00:00:11.20, start: 0.000000, bitrate: 781 kb/s\\n  Stream #2:0[0x1](eng): Video: vp9 (Profile 0) (vp09 / 0x39307076), yuv420p(tv, bt709), 608x1080, 456 kb/s, SAR 1:1 DAR 76:135, 29.97 fps, 29.97 tbr, 16k tbn (default)\\n    Metadata:\\n      handler_name    : VideoHandler\\n      vendor_id       : [0][0][0][0]\\n  Stream #2:1[0x2](eng): Audio: aac (LC) (mp4a / 0x6134706D), 44100 Hz, stereo, fltp, 127 kb/s (default)\\n    Metadata:\\n      handler_name    : ISO Media file produced by Google Inc.\\n      vendor_id       : [0][0][0][0]\\nInput #3, mov,mp4,m4a,3gp,3g2,mj2, from '/home/hjj/2601_VPI_V3__shorts_pipline/data/work/2026-02-22/KR_video_02/outputs/highlight_4.mp4':\\n  Metadata:\\n    major_brand     : isom\\n    minor_version   : 512\\n    compatible_brands: isomiso2avc1mp41\\n    encoder         : Lavf60.3.100\\n  Duration: 00:00:11.20, start: 0.000000, bitrate: 957 kb/s\\n  Stream #3:0[0x1](und): Video: h264 (Main) (avc1 / 0x31637661), yuv420p(tv, bt709, progressive), 480x768 [SAR 1:1 DAR 5:8], 729 kb/s, 29.97 fps, 29.97 tbr, 30k tbn (default)\\n    Metadata:\\n      handler_name    : ISO Media file produced by Google Inc.\\n      vendor_id       : [0][0][0][0]\\n  Stream #3:1[0x2](und): Audio: aac (LC) (mp4a / 0x6134706D), 44100 Hz, stereo, fltp, 127 kb/s (default)\\n    Metadata:\\n      handler_name    : ISO Media file produced by Google Inc.\\n      vendor_id       : [0][0][0][0]\\n[mp3 @ 0x55a59802a2c0] Estimating duration from bitrate, this may be inaccurate\\nInput #4, mp3, from '/home/hjj/2601_VPI_V3__shorts_pipline/data/work/2026-02-22/KR_video_02/outputs/tts_1.mp3':\\n  Duration: 00:00:02.57, start: 0.000000, bitrate: 48 kb/s\\n  Stream #4:0: Audio: mp3, 24000 Hz, mono, fltp, 48 kb/s\\n[mp3 @ 0x55a59801b0c0] Estimating duration from bitrate, this may be inaccurate\\nInput #5, mp3, from '/home/hjj/2601_VPI_V3__shorts_pipline/data/work/2026-02-22/KR_video_02/outputs/tts_2.mp3':\\n  Duration: 00:00:03.02, start: 0.000000, bitrate: 48 kb/s\\n  Stream #5:0: Audio: mp3, 24000 Hz, mono, fltp, 48 kb/s\\n[mp3 @ 0x55a59839cb40] Estimating duration from bitrate, this may be inaccurate\\nInput #6, mp3, from '/home/hjj/2601_VPI_V3__shorts_pipline/data/work/2026-02-22/KR_video_02/outputs/tts_3.mp3':\\n  Duration: 00:00:02.98, start: 0.000000, bitrate: 48 kb/s\\n  Stream #6:0: Audio: mp3, 24000 Hz, mono, fltp, 48 kb/s\\n[mp3 @ 0x55a598087100] Estimating duration from bitrate, this may be inaccurate\\nInput #7, mp3, from '/home/hjj/2601_VPI_V3__shorts_pipline/data/work/2026-02-22/KR_video_02/outputs/tts_4.mp3':\\n  Duration: 00:00:02.98, start: 0.000000, bitrate: 48 kb/s\\n  Stream #7:0: Audio: mp3, 24000 Hz, mono, fltp, 48 kb/s\\nStream mapping:\\n  Stream #0:0 (vp9) -> scale:default\\n  Stream #0:1 (aac) -> aformat:default\\n  Stream #1:0 (vp9) -> scale:default\\n  Stream #1:1 (aac) -> aformat:default\\n  Stream #2:0 (vp9) -> scale:default\\n  Stream #2:1 (aac) -> aformat:default\\n  Stream #3:0 (h264) -> scale:default\\n  Stream #3:1 (aac) -> aformat:default\\n  Stream #4:0 (mp3float) -> adelay:default\\n  Stream #5:0 (mp3float) -> adelay:default\\n  Stream #6:0 (mp3float) -> adelay:default\\n  Stream #7:0 (mp3float) -> adelay:default\\n  concat -> Stream #0:0 (libx264)\\n  concat -> Stream #0:1 (aac)\\nPress [q] to stop, [?] for help\\n[h264 @ 0x55a598626980] Late SEI is not implemented. Update your FFmpeg version to the newest one from Git. If the problem still occurs, it means that your file has a feature which has not been implemented.\\n[h264 @ 0x55a598626980] If you want to help, upload a sample of this file to https://streams.videolan.org/upload/ and contact the ffmpeg-devel mailing list. (ffmpeg-devel@ffmpeg.org)\\n[Parsed_concat_60 @ 0x55a5983a1b80] Input link in0:v0 parameters (size 1080x1920, SAR 1:1) do not match the corresponding output link in0:v0 parameters (1080x1920, SAR 9728:9729)\\n[Parsed_concat_60 @ 0x55a5983a1b80] Failed to configure output pad on Parsed_concat_60\\nError reinitializing filters!\\nFailed to inject frame into filter network: Invalid argument\\nError while processing the decoded data for stream #7:0\\nConversion failed!\\n\"}",
          "originalKeyword": "쇼트 트랙 여자 계주",
          "queryEngineering": {
            "target_language_confirmed": "한국어",
            "clusters": [
              {
                "name": "선수 및 금메달 하이라이트",
                "logic": "주요 선수들의 이름과 그들이 획득한 금메달, 그리고 경기 중의 결정적인 순간들을 중심으로 검색합니다."
              },
              {
                "name": "주요 대회 및 경기 영상",
                "logic": "다가오는 동계올림픽과 관련된 여자 계주 경기의 전체 영상, 결승전, 그리고 명장면을 찾는 데 중점을 둡니다."
              },
              {
                "name": "해외 반응 및 선수 인터뷰",
                "logic": "경기 결과에 대한 해외의 반응과 선수들의 경기 후 인터뷰를 통해 심층적인 정보를 얻고자 합니다."
              }
            ],
            "validationHistory": [
              {
                "q": "쇼트트랙 여자 계주 금메달|최민정|김길리 -kpop -idol -유화스케치",
                "theme": "한국 쇼트트랙 여자 계주 에이스들의 금메달 순간",
                "status": "PASS"
              }
            ]
          },
          "keyword": "쇼트트랙 여자 계주 금메달|최민정|김길리 -kpop -idol -유화스케치",
          "selectedSourceVideos": [
            {
              "videoId": "0V6oWe8XPpA",
              "title": "심석희-최민정 여자 계주 시상식 리허설에선? #JTBC #Shorts",
              "channelTitle": "JTBC News",
              "predicted7d": 752934,
              "delta": 420873
            },
            {
              "videoId": "wicJ3C-S1PQ",
              "title": "16년 만에 다시 되찾은 쇼트트랙 금메달",
              "channelTitle": "펀한거 주웠다",
              "predicted7d": 168898,
              "delta": 63722
            },
            {
              "videoId": "x53GjzbuTr4",
              "title": "폐막식 '엔딩요정' 최민정 #JTBC #Shorts",
              "channelTitle": "JTBC News",
              "predicted7d": 60580,
              "delta": 44564
            },
            {
              "videoId": "lfrsqpCXBH8",
              "title": "대한민국, 쇼트트랙 여자 3000m 계주 금메달…8년 만에 '왕좌 탈환",
              "channelTitle": "BNS TV",
              "predicted7d": 44994,
              "delta": 43613
            }
          ],
          "selectedTheme": "Unknown",
          "videoProcessor": {
            "status": "DONE"
          },
          "outputFile": "final.mp4",
          "outputFileAbs": "/home/hjj/2601_VPI_V3__shorts_pipline/data/work/2026-02-22/KR_video_02/final.mp4",
          "uploadMeta": {
            "title": "쇼트트랙 여자 계주 금메달: 최민정 김길리 레전드 순간!",
            "description": "2026-02-22_KR_2\n쇼트트랙 여자 계주 금메달의 감동적인 순간들을 모았습니다. 최민정, 김길리 선수의 빛나는 활약과 땀방울이 만들어낸 전설적인 승리를 지금 바로 확인하세요! 16년 만의 왕좌 탈환, 그 짜릿함을 놓치지 마세요.",
            "tags": [
              "쇼트트랙",
              "여자계주",
              "금메달",
              "최민정",
              "김길리",
              "쇼츠",
              "스포츠",
              "국가대표",
              "레전드"
            ]
          },
          "upload": {
            "status": "DONE",
            "youtubeVideoId": "7E12_pqKODM"
          },
          "updatedAt": "2026-02-22T06:54:17.787Z"
        }
      ],
      "status": "DONE",
      "updatedAt": "2026-02-22T06:54:17.795Z"
    },
    "US": {
      "region": "US",
      "trends": {
        "status": "DONE",
        "lastError": "Trend API 오류(503): {\"region\":\"US\",\"days\":7,\"keywords\":[\"Viral challenges\",\"New movie/show releases\",\"Celebrity news\",\"Viral food trends\",\"Tech gadget reviews\",\"Fashion trends\",\"Beauty routines\",\"Travel hacks\",\"Gaming trends\",\"DIY home decor\",\"Pet care tips\",\"Music news\",\"Aesthetic trends\",\"Wellness tips\",\"Life hacks\",\"Sports highlights\",\"Reading trends\",\"Eco-friendly living\",\"Plant care tips\",\"Summer activities\"],\"debug\":{\"rawItems\":0,\"candidates\":0,\"trafficAvg\":null,\"trafficMax\":null,\"llmUsed\":true,\"python\":{\"pythonOk\":false,\"reason\":\"PYTHON_FAILED\",\"attempts\":1,\"circuit\":{\"consecutive429\":0,\"openUntilMs\":0},\"error\":\"pytrends_fetch 실패(code=1): Traceback (most recent call last):\\n  File \\\"/home/hjj/2601_VPI_V3__shorts_pipline/services/trend-service/pytrends_fetch.py\\\", line 28, in <module>\\n    from pytrends.request import TrendReq\\nModuleNotFoundError: No module named 'pytrends'\\n\"}}}",
        "keywords": [
          "lil poppa",
          "alysa liu",
          "poppy playtime chapter 5",
          "ryan garcia vs mario barrios",
          "toy story 5"
        ],
        "updatedAt": "2026-02-22T06:39:05.295Z"
      },
      "videos": [
        {
          "slot": 1,
          "status": "ERROR",
          "error": "Video Processor API 오류(500): {\"ok\":false,\"error\":\"Command failed: ffmpeg -y -i \\\"/home/hjj/2601_VPI_V3__shorts_pipline/data/work/2026-02-22/US_video_01/outputs/highlight_1.mp4\\\" -i \\\"/home/hjj/2601_VPI_V3__shorts_pipline/data/work/2026-02-22/US_video_01/outputs/highlight_2.mp4\\\" -i \\\"/home/hjj/2601_VPI_V3__shorts_pipline/data/work/2026-02-22/US_video_01/outputs/highlight_3.mp4\\\" -i \\\"/home/hjj/2601_VPI_V3__shorts_pipline/data/work/2026-02-22/US_video_01/outputs/highlight_4.mp4\\\" -i \\\"/home/hjj/2601_VPI_V3__shorts_pipline/data/work/2026-02-22/US_video_01/outputs/tts_1.mp3\\\" -i \\\"/home/hjj/2601_VPI_V3__shorts_pipline/data/work/2026-02-22/US_video_01/outputs/tts_2.mp3\\\" -i \\\"/home/hjj/2601_VPI_V3__shorts_pipline/data/work/2026-02-22/US_video_01/outputs/tts_3.mp3\\\" -i \\\"/home/hjj/2601_VPI_V3__shorts_pipline/data/work/2026-02-22/US_video_01/outputs/tts_4.mp3\\\" -filter_complex \\\"[0:v]scale=1080:1920:force_original_aspect_ratio=increase,crop=1080:1920,fps=30,format=yuv420p,setsar=1,drawbox=y=0:color=black@0.6:width=iw:height=ih:t=fill:enable='lt(t,1.2)',drawbox=y=130:color=black@0.4:width=iw:height=220:t=fill:enable='gt(t,1.2)',drawtext=text='1. His Tragic\\\\nProphecy':fontfile='/home/hjj/2601_VPI_V3__shorts_pipline/data/assets/memomentKkukkkuk.ttf':fontcolor=white:fontsize='if(lt(t,0.8), 85, if(lt(t,1.2), 85-(85-55)*(t-0.8)/0.4, 55))':line_spacing=15:x=(w-text_w)/2:y='if(lt(t,0.8), (h-th)/2, if(lt(t,1.2), (h-th)/2-((h-th)/2-180)*(t-0.8)/0.4, 180))':expansion=none,fade=t=out:st=10.9:d=0.3[v0];[4:a]adelay=200|200,aformat=sample_fmts=fltp:sample_rates=44100:channel_layouts=stereo[tts0];[0:a]aformat=sample_fmts=fltp:sample_rates=44100:channel_layouts=stereo,volume=enable='lt(t,0.8)':volume=0.2,afade=t=in:st=0.8:d=1.5[bg0];[bg0][tts0]amix=inputs=2:duration=first:dropout_transition=2,afade=t=out:st=10.9:d=0.3[a0];[1:v]scale=1080:1920:force_original_aspect_ratio=increase,crop=1080:1920,fps=30,format=yuv420p,setsar=1,drawbox=y=0:color=black@0.6:width=iw:height=ih:t=fill:enable='lt(t,1.2)',drawbox=y=130:color=black@0.4:width=iw:height=220:t=fill:enable='gt(t,1.2)',drawtext=text='2. Music'\\\\\\\\\\\\''s Final\\\\nBetrayal':fontfile='/home/hjj/2601_VPI_V3__shorts_pipline/data/assets/memomentKkukkkuk.ttf':fontcolor=white:fontsize='if(lt(t,0.8), 85, if(lt(t,1.2), 85-(85-55)*(t-0.8)/0.4, 55))':line_spacing=15:x=(w-text_w)/2:y='if(lt(t,0.8), (h-th)/2, if(lt(t,1.2), (h-th)/2-((h-th)/2-180)*(t-0.8)/0.4, 180))':expansion=none,fade=t=out:st=10.9:d=0.3[v1];[5:a]adelay=200|200,aformat=sample_fmts=fltp:sample_rates=44100:channel_layouts=stereo[tts1];[1:a]aformat=sample_fmts=fltp:sample_rates=44100:channel_layouts=stereo,volume=enable='lt(t,0.8)':volume=0.2,afade=t=in:st=0.8:d=1.5[bg1];[bg1][tts1]amix=inputs=2:duration=first:dropout_transition=2,afade=t=out:st=10.9:d=0.3[a1];[2:v]scale=1080:1920:force_original_aspect_ratio=increase,crop=1080:1920,fps=30,format=yuv420p,setsar=1,drawbox=y=0:color=black@0.6:width=iw:height=ih:t=fill:enable='lt(t,1.2)',drawbox=y=130:color=black@0.4:width=iw:height=220:t=fill:enable='gt(t,1.2)',drawtext=text='3. Ace'\\\\\\\\\\\\''s Unheard\\\\nFarewell':fontfile='/home/hjj/2601_VPI_V3__shorts_pipline/data/assets/memomentKkukkkuk.ttf':fontcolor=white:fontsize='if(lt(t,0.8), 85, if(lt(t,1.2), 85-(85-55)*(t-0.8)/0.4, 55))':line_spacing=15:x=(w-text_w)/2:y='if(lt(t,0.8), (h-th)/2, if(lt(t,1.2), (h-th)/2-((h-th)/2-180)*(t-0.8)/0.4, 180))':expansion=none,fade=t=out:st=10.9:d=0.3[v2];[6:a]adelay=200|200,aformat=sample_fmts=fltp:sample_rates=44100:channel_layouts=stereo[tts2];[2:a]aformat=sample_fmts=fltp:sample_rates=44100:channel_layouts=stereo,volume=enable='lt(t,0.8)':volume=0.2,afade=t=in:st=0.8:d=1.5[bg2];[bg2][tts2]amix=inputs=2:duration=first:dropout_transition=2,afade=t=out:st=10.9:d=0.3[a2];[3:v]scale=1080:1920:force_original_aspect_ratio=increase,crop=1080:1920,fps=30,format=yuv420p,setsar=1,drawbox=y=0:color=black@0.6:width=iw:height=ih:t=fill:enable='lt(t,1.2)',drawbox=y=130:color=black@0.4:width=iw:height=220:t=fill:enable='gt(t,1.2)',drawtext=text='4. Rappers'\\\\\\\\\\\\''\\\\nEmotional Tributes':fontfile='/home/hjj/2601_VPI_V3__shorts_pipline/data/assets/memomentKkukkkuk.ttf':fontcolor=white:fontsize='if(lt(t,0.8), 85, if(lt(t,1.2), 85-(85-55)*(t-0.8)/0.4, 55))':line_spacing=15:x=(w-text_w)/2:y='if(lt(t,0.8), (h-th)/2, if(lt(t,1.2), (h-th)/2-((h-th)/2-180)*(t-0.8)/0.4, 180))':expansion=none,fade=t=out:st=10.9:d=0.3[v3];[7:a]adelay=200|200,aformat=sample_fmts=fltp:sample_rates=44100:channel_layouts=stereo[tts3];[3:a]aformat=sample_fmts=fltp:sample_rates=44100:channel_layouts=stereo,volume=enable='lt(t,0.8)':volume=0.2,afade=t=in:st=0.8:d=1.5[bg3];[bg3][tts3]amix=inputs=2:duration=first:dropout_transition=2,afade=t=out:st=10.9:d=0.3[a3];[v0][a0][v1][a1][v2][a2][v3][a3]concat=n=4:v=1:a=1[vout][aout]\\\" -map \\\"[vout]\\\" -map \\\"[aout]\\\" -c:v libx264 -preset medium -crf 18 -pix_fmt yuv420p -c:a aac -b:a 192k \\\"/home/hjj/2601_VPI_V3__shorts_pipline/data/work/2026-02-22/US_video_01/final.mp4\\\"\\nffmpeg version 6.0.1 Copyright (c) 2000-2023 the FFmpeg developers\\n  built with gcc 12.3.0 (conda-forge gcc 12.3.0-2)\\n  configuration: --prefix=/home/hjj/miniconda3 --cc=/home/conda/feedstock_root/build_artifacts/ffmpeg_1699623786183/_build_env/bin/x86_64-conda-linux-gnu-cc --cxx=/home/conda/feedstock_root/build_artifacts/ffmpeg_1699623786183/_build_env/bin/x86_64-conda-linux-gnu-c++ --nm=/home/conda/feedstock_root/build_artifacts/ffmpeg_1699623786183/_build_env/bin/x86_64-conda-linux-gnu-nm --ar=/home/conda/feedstock_root/build_artifacts/ffmpeg_1699623786183/_build_env/bin/x86_64-conda-linux-gnu-ar --disable-doc --disable-openssl --enable-demuxer=dash --enable-hardcoded-tables --enable-libfreetype --enable-libfontconfig --enable-libopenh264 --enable-libdav1d --enable-gnutls --enable-libmp3lame --enable-libvpx --enable-libass --enable-pthreads --enable-vaapi --enable-gpl --enable-libx264 --enable-libx265 --enable-libaom --enable-libsvtav1 --enable-libxml2 --enable-pic --enable-shared --disable-static --enable-version3 --enable-zlib --enable-libopus --pkg-config=/home/conda/feedstock_root/build_artifacts/ffmpeg_1699623786183/_build_env/bin/pkg-config\\n  libavutil      58.  2.100 / 58.  2.100\\n  libavcodec     60.  3.100 / 60.  3.100\\n  libavformat    60.  3.100 / 60.  3.100\\n  libavdevice    60.  1.100 / 60.  1.100\\n  libavfilter     9.  3.100 /  9.  3.100\\n  libswscale      7.  1.100 /  7.  1.100\\n  libswresample   4. 10.100 /  4. 10.100\\n  libpostproc    57.  1.100 / 57.  1.100\\nInput #0, mov,mp4,m4a,3gp,3g2,mj2, from '/home/hjj/2601_VPI_V3__shorts_pipline/data/work/2026-02-22/US_video_01/outputs/highlight_1.mp4':\\n  Metadata:\\n    major_brand     : isom\\n    minor_version   : 512\\n    compatible_brands: isomiso2mp41\\n    encoder         : Lavf60.3.100\\n  Duration: 00:00:11.20, start: 0.000000, bitrate: 994 kb/s\\n  Stream #0:0[0x1](eng): Video: vp9 (Profile 0) (vp09 / 0x39307076), yuv420p(tv, bt709), 594x1080, 593 kb/s, SAR 1:1 DAR 11:20, 30 fps, 30 tbr, 16k tbn (default)\\n    Metadata:\\n      handler_name    : VideoHandler\\n      vendor_id       : [0][0][0][0]\\n  Stream #0:1[0x2](eng): Audio: aac (LC) (mp4a / 0x6134706D), 44100 Hz, stereo, fltp, 127 kb/s (default)\\n    Metadata:\\n      handler_name    : ISO Media file produced by Google Inc.\\n      vendor_id       : [0][0][0][0]\\nInput #1, mov,mp4,m4a,3gp,3g2,mj2, from '/home/hjj/2601_VPI_V3__shorts_pipline/data/work/2026-02-22/US_video_01/outputs/highlight_2.mp4':\\n  Metadata:\\n    major_brand     : isom\\n    minor_version   : 512\\n    compatible_brands: isomiso2mp41\\n    encoder         : Lavf60.3.100\\n  Duration: 00:00:11.20, start: 0.000000, bitrate: 267 kb/s\\n  Stream #1:0[0x1](eng): Video: vp9 (Profile 0) (vp09 / 0x39307076), yuv420p(tv, bt709), 608x1080, 102 kb/s, SAR 1:1 DAR 76:135, 30 fps, 30 tbr, 16k tbn (default)\\n    Metadata:\\n      handler_name    : VideoHandler\\n      vendor_id       : [0][0][0][0]\\n  Stream #1:1[0x2](und): Audio: aac (LC) (mp4a / 0x6134706D), 44100 Hz, stereo, fltp, 127 kb/s (default)\\n    Metadata:\\n      handler_name    : ISO Media file produced by Google Inc.\\n      vendor_id       : [0][0][0][0]\\nInput #2, mov,mp4,m4a,3gp,3g2,mj2, from '/home/hjj/2601_VPI_V3__shorts_pipline/data/work/2026-02-22/US_video_01/outputs/highlight_3.mp4':\\n  Metadata:\\n    major_brand     : isom\\n    minor_version   : 512\\n    compatible_brands: isomiso2mp41\\n    encoder         : Lavf60.3.100\\n  Duration: 00:00:11.20, start: 0.000000, bitrate: 641 kb/s\\n  Stream #2:0[0x1](eng): Video: vp9 (Profile 0) (vp09 / 0x39307076), yuv420p(tv, bt709), 608x1080, 500 kb/s, SAR 1:1 DAR 76:135, 30 fps, 30 tbr, 16k tbn (default)\\n    Metadata:\\n      handler_name    : VideoHandler\\n      vendor_id       : [0][0][0][0]\\n  Stream #2:1[0x2](eng): Audio: aac (LC) (mp4a / 0x6134706D), 44100 Hz, stereo, fltp, 127 kb/s (default)\\n    Metadata:\\n      handler_name    : ISO Media file produced by Google Inc.\\n      vendor_id       : [0][0][0][0]\\nInput #3, mov,mp4,m4a,3gp,3g2,mj2, from '/home/hjj/2601_VPI_V3__shorts_pipline/data/work/2026-02-22/US_video_01/outputs/highlight_4.mp4':\\n  Metadata:\\n    major_brand     : isom\\n    minor_version   : 512\\n    compatible_brands: isomiso2mp41\\n    encoder         : Lavf60.3.100\\n  Duration: 00:00:11.20, start: 0.000000, bitrate: 1478 kb/s\\n  Stream #3:0[0x1](eng): Video: vp9 (Profile 0) (vp09 / 0x39307076), yuv420p(tv, bt709), 608x1080, 942 kb/s, SAR 1:1 DAR 76:135, 30 fps, 30 tbr, 16k tbn (default)\\n    Metadata:\\n      handler_name    : VideoHandler\\n      vendor_id       : [0][0][0][0]\\n  Stream #3:1[0x2](und): Audio: aac (LC) (mp4a / 0x6134706D), 44100 Hz, stereo, fltp, 127 kb/s (default)\\n    Metadata:\\n      handler_name    : ISO Media file produced by Google Inc.\\n      vendor_id       : [0][0][0][0]\\n[mp3 @ 0x55a870d42400] Estimating duration from bitrate, this may be inaccurate\\nInput #4, mp3, from '/home/hjj/2601_VPI_V3__shorts_pipline/data/work/2026-02-22/US_video_01/outputs/tts_1.mp3':\\n  Duration: 00:00:02.38, start: 0.000000, bitrate: 48 kb/s\\n  Stream #4:0: Audio: mp3, 24000 Hz, mono, fltp, 48 kb/s\\n[mp3 @ 0x55a870d5b980] Estimating duration from bitrate, this may be inaccurate\\nInput #5, mp3, from '/home/hjj/2601_VPI_V3__shorts_pipline/data/work/2026-02-22/US_video_01/outputs/tts_2.mp3':\\n  Duration: 00:00:02.50, start: 0.000000, bitrate: 48 kb/s\\n  Stream #5:0: Audio: mp3, 24000 Hz, mono, fltp, 48 kb/s\\n[mp3 @ 0x55a870d6e580] Estimating duration from bitrate, this may be inaccurate\\nInput #6, mp3, from '/home/hjj/2601_VPI_V3__shorts_pipline/data/work/2026-02-22/US_video_01/outputs/tts_3.mp3':\\n  Duration: 00:00:02.57, start: 0.000000, bitrate: 48 kb/s\\n  Stream #6:0: Audio: mp3, 24000 Hz, mono, fltp, 48 kb/s\\n[mp3 @ 0x55a870dc0fc0] Estimating duration from bitrate, this may be inaccurate\\nInput #7, mp3, from '/home/hjj/2601_VPI_V3__shorts_pipline/data/work/2026-02-22/US_video_01/outputs/tts_4.mp3':\\n  Duration: 00:00:02.66, start: 0.000000, bitrate: 48 kb/s\\n  Stream #7:0: Audio: mp3, 24000 Hz, mono, fltp, 48 kb/s\\n[AVFilterGraph @ 0x55a870d5af00] No option name near '/home/hjj/2601_VPI_V3__shorts_pipline/data/assets/memomentKkukkkuk.ttf:fontcolor=white:fontsize=if(lt(t,0.8), 85, if(lt(t,1.2), 85-(85-55)*(t-0.8)/0.4, 55)):line_spacing=15:x=(w-text_w)/2:y=if(lt(t,0.8), (h-th)/2, if(lt(t,1.2), (h-th)/2-((h-th)/2-180)*(t-0.8)/0.4, 180)):expansion=none'\\n[AVFilterGraph @ 0x55a870d5af00] Error parsing a filter description around: ,fade=t=out:st=10.9:d=0.3[v2];[6:a]adelay=200|200,aformat=sample_fmts=fltp:sample_rates=44100:channel_layouts=stereo[tts2];[2:a]aformat=sample_fmts=fltp:sample_rates=44100:channel_layouts=stereo,volume=enable='lt(t,0.8)':volume=0.2,afade=t=in:st=0.8:d=1.5[bg2];[bg2][tts2]amix=inputs=2:duration=first:dropout_transition=2,afade=t=out:st=10.9:d=0.3[a2];[3:v]scale=1080:1920:force_original_aspect_ratio=increase,crop=1080:1920,fps=30,format=yuv420p,setsar=1,drawbox=y=0:color=black@0.6:width=iw:height=ih:t=fill:enable='lt(t,1.2)',drawbox=y=130:color=black@0.4:width=iw:height=220:t=fill:enable='gt(t,1.2)',drawtext=text='4. Rappers'\\\\\\\\''\\\\nEmotional Tributes':fontfile='/home/hjj/2601_VPI_V3__shorts_pipline/data/assets/memomentKkukkkuk.ttf':fontcolor=white:fontsize='if(lt(t,0.8), 85, if(lt(t,1.2), 85-(85-55)*(t-0.8)/0.4, 55))':line_spacing=15:x=(w-text_w)/2:y='if(lt(t,0.8), (h-th)/2, if(lt(t,1.2), (h-th)/2-((h-th)/2-180)*(t-0.8)/0.4, 180))':expansion=none,fade=t=out:st=10.9:d=0.3[v3];[7:a]adelay=200|200,aformat=sample_fmts=fltp:sample_rates=44100:channel_layouts=stereo[tts3];[3:a]aformat=sample_fmts=fltp:sample_rates=44100:channel_layouts=stereo,volume=enable='lt(t,0.8)':volume=0.2,afade=t=in:st=0.8:d=1.5[bg3];[bg3][tts3]amix=inputs=2:duration=first:dropout_transition=2,afade=t=out:st=10.9:d=0.3[a3];[v0][a0][v1][a1][v2][a2][v3][a3]concat=n=4:v=1:a=1[vout][aout]\\n[AVFilterGraph @ 0x55a870d5af00] Error parsing filterchain '[1:v]scale=1080:1920:force_original_aspect_ratio=increase,crop=1080:1920,fps=30,format=yuv420p,setsar=1,drawbox=y=0:color=black@0.6:width=iw:height=ih:t=fill:enable='lt(t,1.2)',drawbox=y=130:color=black@0.4:width=iw:height=220:t=fill:enable='gt(t,1.2)',drawtext=text='2. Music'\\\\\\\\''s Final\\\\nBetrayal':fontfile='/home/hjj/2601_VPI_V3__shorts_pipline/data/assets/memomentKkukkkuk.ttf':fontcolor=white:fontsize='if(lt(t,0.8), 85, if(lt(t,1.2), 85-(85-55)*(t-0.8)/0.4, 55))':line_spacing=15:x=(w-text_w)/2:y='if(lt(t,0.8), (h-th)/2, if(lt(t,1.2), (h-th)/2-((h-th)/2-180)*(t-0.8)/0.4, 180))':expansion=none,fade=t=out:st=10.9:d=0.3[v1];[5:a]adelay=200|200,aformat=sample_fmts=fltp:sample_rates=44100:channel_layouts=stereo[tts1];[1:a]aformat=sample_fmts=fltp:sample_rates=44100:channel_layouts=stereo,volume=enable='lt(t,0.8)':volume=0.2,afade=t=in:st=0.8:d=1.5[bg1];[bg1][tts1]amix=inputs=2:duration=first:dropout_transition=2,afade=t=out:st=10.9:d=0.3[a1];[2:v]scale=1080:1920:force_original_aspect_ratio=increase,crop=1080:1920,fps=30,format=yuv420p,setsar=1,drawbox=y=0:color=black@0.6:width=iw:height=ih:t=fill:enable='lt(t,1.2)',drawbox=y=130:color=black@0.4:width=iw:height=220:t=fill:enable='gt(t,1.2)',drawtext=text='3. Ace'\\\\\\\\''s Unheard\\\\nFarewell':fontfile='/home/hjj/2601_VPI_V3__shorts_pipline/data/assets/memomentKkukkkuk.ttf':fontcolor=white:fontsize='if(lt(t,0.8), 85, if(lt(t,1.2), 85-(85-55)*(t-0.8)/0.4, 55))':line_spacing=15:x=(w-text_w)/2:y='if(lt(t,0.8), (h-th)/2, if(lt(t,1.2), (h-th)/2-((h-th)/2-180)*(t-0.8)/0.4, 180))':expansion=none,fade=t=out:st=10.9:d=0.3[v2];[6:a]adelay=200|200,aformat=sample_fmts=fltp:sample_rates=44100:channel_layouts=stereo[tts2];[2:a]aformat=sample_fmts=fltp:sample_rates=44100:channel_layouts=stereo,volume=enable='lt(t,0.8)':volume=0.2,afade=t=in:st=0.8:d=1.5[bg2];[bg2][tts2]amix=inputs=2:duration=first:dropout_transition=2,afade=t=out:st=10.9:d=0.3[a2];[3:v]scale=1080:1920:force_original_aspect_ratio=increase,crop=1080:1920,fps=30,format=yuv420p,setsar=1,drawbox=y=0:color=black@0.6:width=iw:height=ih:t=fill:enable='lt(t,1.2)',drawbox=y=130:color=black@0.4:width=iw:height=220:t=fill:enable='gt(t,1.2)',drawtext=text='4. Rappers'\\\\\\\\''\\\\nEmotional Tributes':fontfile='/home/hjj/2601_VPI_V3__shorts_pipline/data/assets/memomentKkukkkuk.ttf':fontcolor=white:fontsize='if(lt(t,0.8), 85, if(lt(t,1.2), 85-(85-55)*(t-0.8)/0.4, 55))':line_spacing=15:x=(w-text_w)/2:y='if(lt(t,0.8), (h-th)/2, if(lt(t,1.2), (h-th)/2-((h-th)/2-180)*(t-0.8)/0.4, 180))':expansion=none,fade=t=out:st=10.9:d=0.3[v3];[7:a]adelay=200|200,aformat=sample_fmts=fltp:sample_rates=44100:channel_layouts=stereo[tts3];[3:a]aformat=sample_fmts=fltp:sample_rates=44100:channel_layouts=stereo,volume=enable='lt(t,0.8)':volume=0.2,afade=t=in:st=0.8:d=1.5[bg3];[bg3][tts3]amix=inputs=2:duration=first:dropout_transition=2,afade=t=out:st=10.9:d=0.3[a3];[v0][a0][v1][a1][v2][a2][v3][a3]concat=n=4:v=1:a=1[vout][aout]' around: ,fade=t=out:st=10.9:d=0.3[v2];[6:a]adelay=200|200,aformat=sample_fmts=fltp:sample_rates=44100:channel_layouts=stereo[tts2];[2:a]aformat=sample_fmts=fltp:sample_rates=44100:channel_layouts=stereo,volume=enable='lt(t,0.8)':volume=0.2,afade=t=in:st=0.8:d=1.5[bg2];[bg2][tts2]amix=inputs=2:duration=first:dropout_transition=2,afade=t=out:st=10.9:d=0.3[a2];[3:v]scale=1080:1920:force_original_aspect_ratio=increase,crop=1080:1920,fps=30,format=yuv420p,setsar=1,drawbox=y=0:color=black@0.6:width=iw:height=ih:t=fill:enable='lt(t,1.2)',drawbox=y=130:color=black@0.4:width=iw:height=220:t=fill:enable='gt(t,1.2)',drawtext=text='4. Rappers'\\\\\\\\''\\\\nEmotional Tributes':fontfile='/home/hjj/2601_VPI_V3__shorts_pipline/data/assets/memomentKkukkkuk.ttf':fontcolor=white:fontsize='if(lt(t,0.8), 85, if(lt(t,1.2), 85-(85-55)*(t-0.8)/0.4, 55))':line_spacing=15:x=(w-text_w)/2:y='if(lt(t,0.8), (h-th)/2, if(lt(t,1.2), (h-th)/2-((h-th)/2-180)*(t-0.8)/0.4, 180))':expansion=none,fade=t=out:st=10.9:d=0.3[v3];[7:a]adelay=200|200,aformat=sample_fmts=fltp:sample_rates=44100:channel_layouts=stereo[tts3];[3:a]aformat=sample_fmts=fltp:sample_rates=44100:channel_layouts=stereo,volume=enable='lt(t,0.8)':volume=0.2,afade=t=in:st=0.8:d=1.5[bg3];[bg3][tts3]amix=inputs=2:duration=first:dropout_transition=2,afade=t=out:st=10.9:d=0.3[a3];[v0][a0][v1][a1][v2][a2][v3][a3]concat=n=4:v=1:a=1[vout][aout]\\nError initializing complex filters.\\nInvalid argument\\n\"}",
          "originalKeyword": "lil poppa",
          "queryEngineering": {
            "target_language_confirmed": "English",
            "clusters": [
              {
                "name": "Lil Poppa Death & News Updates",
                "logic": "This cluster focuses on the circumstances surrounding Lil Poppa's passing, related news reports, controversies, and public reactions, including terms like 'death', 'suicide', 'RIP', and 'breaking news'."
              },
              {
                "name": "Lil Poppa Music & Career Highlights",
                "logic": "This cluster covers Lil Poppa's musical output, genre, discography, collaborations with other artists, and his overall career as a rapper, including terms like 'music', 'hip hop', 'rap', and specific song titles or associated artists."
              },
              {
                "name": "Lil Poppa Biography & Personal Story",
                "logic": "This cluster delves into Lil Poppa's personal background, life story, family details, health issues, and geographical connections, including terms like 'biography', 'personal life', 'sickle cell', and 'Jacksonville'."
              }
            ],
            "validationHistory": [
              {
                "q": "Lil Poppa death|what happened|news -Suicide is unforgivable -housing crash -MrBeast",
                "theme": "Lil Poppa Death & News Updates",
                "status": "FAIL",
                "reason": "검색 결과 부족 (검색됨: 0개 / 최소 필요: 3개)"
              },
              {
                "q": "Lil Poppa music|songs|discography -comedy -tiktok -tesla",
                "theme": "Lil Poppa Music & Career Highlights",
                "status": "PASS"
              }
            ]
          },
          "keyword": "Lil Poppa music|songs|discography -comedy -tiktok -tesla",
          "selectedSourceVideos": [
            {
              "videoId": "1vM3UOQ5uB8",
              "title": "Lil Poppa predicted his own death 😔💔",
              "channelTitle": "Shivfrmdao",
              "predicted7d": 62929,
              "delta": 47261
            },
            {
              "videoId": "mHh04nK2dFI",
              "title": "How Lil Poppa's Music Saved His Life (Until It Couldn't) 🎤🕊️ #LilPoppa #Trending",
              "channelTitle": "CRIME THE EWAY",
              "predicted7d": 43443,
              "delta": 42016
            },
            {
              "videoId": "qb2KNWmBjiY",
              "title": "YungeenAce played a unreleased song he had with LilPoppa while on stream after finding out he died..",
              "channelTitle": "Fonzo Dondo",
              "predicted7d": 46211,
              "delta": 39401
            },
            {
              "videoId": "AjiuK8GknIM",
              "title": "Five rappers reacted strongly to the passing of Lil Poppa and the last one even covered all of the",
              "channelTitle": "Binh Hinh",
              "predicted7d": 45339,
              "delta": 38003
            }
          ],
          "selectedTheme": "Unknown",
          "videoProcessor": {
            "status": "ERROR",
            "error": "Video Processor API 오류(500): {\"ok\":false,\"error\":\"Command failed: ffmpeg -y -i \\\"/home/hjj/2601_VPI_V3__shorts_pipline/data/work/2026-02-22/US_video_01/outputs/highlight_1.mp4\\\" -i \\\"/home/hjj/2601_VPI_V3__shorts_pipline/data/work/2026-02-22/US_video_01/outputs/highlight_2.mp4\\\" -i \\\"/home/hjj/2601_VPI_V3__shorts_pipline/data/work/2026-02-22/US_video_01/outputs/highlight_3.mp4\\\" -i \\\"/home/hjj/2601_VPI_V3__shorts_pipline/data/work/2026-02-22/US_video_01/outputs/highlight_4.mp4\\\" -i \\\"/home/hjj/2601_VPI_V3__shorts_pipline/data/work/2026-02-22/US_video_01/outputs/tts_1.mp3\\\" -i \\\"/home/hjj/2601_VPI_V3__shorts_pipline/data/work/2026-02-22/US_video_01/outputs/tts_2.mp3\\\" -i \\\"/home/hjj/2601_VPI_V3__shorts_pipline/data/work/2026-02-22/US_video_01/outputs/tts_3.mp3\\\" -i \\\"/home/hjj/2601_VPI_V3__shorts_pipline/data/work/2026-02-22/US_video_01/outputs/tts_4.mp3\\\" -filter_complex \\\"[0:v]scale=1080:1920:force_original_aspect_ratio=increase,crop=1080:1920,fps=30,format=yuv420p,setsar=1,drawbox=y=0:color=black@0.6:width=iw:height=ih:t=fill:enable='lt(t,1.2)',drawbox=y=130:color=black@0.4:width=iw:height=220:t=fill:enable='gt(t,1.2)',drawtext=text='1. His Tragic\\\\nProphecy':fontfile='/home/hjj/2601_VPI_V3__shorts_pipline/data/assets/memomentKkukkkuk.ttf':fontcolor=white:fontsize='if(lt(t,0.8), 85, if(lt(t,1.2), 85-(85-55)*(t-0.8)/0.4, 55))':line_spacing=15:x=(w-text_w)/2:y='if(lt(t,0.8), (h-th)/2, if(lt(t,1.2), (h-th)/2-((h-th)/2-180)*(t-0.8)/0.4, 180))':expansion=none,fade=t=out:st=10.9:d=0.3[v0];[4:a]adelay=200|200,aformat=sample_fmts=fltp:sample_rates=44100:channel_layouts=stereo[tts0];[0:a]aformat=sample_fmts=fltp:sample_rates=44100:channel_layouts=stereo,volume=enable='lt(t,0.8)':volume=0.2,afade=t=in:st=0.8:d=1.5[bg0];[bg0][tts0]amix=inputs=2:duration=first:dropout_transition=2,afade=t=out:st=10.9:d=0.3[a0];[1:v]scale=1080:1920:force_original_aspect_ratio=increase,crop=1080:1920,fps=30,format=yuv420p,setsar=1,drawbox=y=0:color=black@0.6:width=iw:height=ih:t=fill:enable='lt(t,1.2)',drawbox=y=130:color=black@0.4:width=iw:height=220:t=fill:enable='gt(t,1.2)',drawtext=text='2. Music'\\\\\\\\\\\\''s Final\\\\nBetrayal':fontfile='/home/hjj/2601_VPI_V3__shorts_pipline/data/assets/memomentKkukkkuk.ttf':fontcolor=white:fontsize='if(lt(t,0.8), 85, if(lt(t,1.2), 85-(85-55)*(t-0.8)/0.4, 55))':line_spacing=15:x=(w-text_w)/2:y='if(lt(t,0.8), (h-th)/2, if(lt(t,1.2), (h-th)/2-((h-th)/2-180)*(t-0.8)/0.4, 180))':expansion=none,fade=t=out:st=10.9:d=0.3[v1];[5:a]adelay=200|200,aformat=sample_fmts=fltp:sample_rates=44100:channel_layouts=stereo[tts1];[1:a]aformat=sample_fmts=fltp:sample_rates=44100:channel_layouts=stereo,volume=enable='lt(t,0.8)':volume=0.2,afade=t=in:st=0.8:d=1.5[bg1];[bg1][tts1]amix=inputs=2:duration=first:dropout_transition=2,afade=t=out:st=10.9:d=0.3[a1];[2:v]scale=1080:1920:force_original_aspect_ratio=increase,crop=1080:1920,fps=30,format=yuv420p,setsar=1,drawbox=y=0:color=black@0.6:width=iw:height=ih:t=fill:enable='lt(t,1.2)',drawbox=y=130:color=black@0.4:width=iw:height=220:t=fill:enable='gt(t,1.2)',drawtext=text='3. Ace'\\\\\\\\\\\\''s Unheard\\\\nFarewell':fontfile='/home/hjj/2601_VPI_V3__shorts_pipline/data/assets/memomentKkukkkuk.ttf':fontcolor=white:fontsize='if(lt(t,0.8), 85, if(lt(t,1.2), 85-(85-55)*(t-0.8)/0.4, 55))':line_spacing=15:x=(w-text_w)/2:y='if(lt(t,0.8), (h-th)/2, if(lt(t,1.2), (h-th)/2-((h-th)/2-180)*(t-0.8)/0.4, 180))':expansion=none,fade=t=out:st=10.9:d=0.3[v2];[6:a]adelay=200|200,aformat=sample_fmts=fltp:sample_rates=44100:channel_layouts=stereo[tts2];[2:a]aformat=sample_fmts=fltp:sample_rates=44100:channel_layouts=stereo,volume=enable='lt(t,0.8)':volume=0.2,afade=t=in:st=0.8:d=1.5[bg2];[bg2][tts2]amix=inputs=2:duration=first:dropout_transition=2,afade=t=out:st=10.9:d=0.3[a2];[3:v]scale=1080:1920:force_original_aspect_ratio=increase,crop=1080:1920,fps=30,format=yuv420p,setsar=1,drawbox=y=0:color=black@0.6:width=iw:height=ih:t=fill:enable='lt(t,1.2)',drawbox=y=130:color=black@0.4:width=iw:height=220:t=fill:enable='gt(t,1.2)',drawtext=text='4. Rappers'\\\\\\\\\\\\''\\\\nEmotional Tributes':fontfile='/home/hjj/2601_VPI_V3__shorts_pipline/data/assets/memomentKkukkkuk.ttf':fontcolor=white:fontsize='if(lt(t,0.8), 85, if(lt(t,1.2), 85-(85-55)*(t-0.8)/0.4, 55))':line_spacing=15:x=(w-text_w)/2:y='if(lt(t,0.8), (h-th)/2, if(lt(t,1.2), (h-th)/2-((h-th)/2-180)*(t-0.8)/0.4, 180))':expansion=none,fade=t=out:st=10.9:d=0.3[v3];[7:a]adelay=200|200,aformat=sample_fmts=fltp:sample_rates=44100:channel_layouts=stereo[tts3];[3:a]aformat=sample_fmts=fltp:sample_rates=44100:channel_layouts=stereo,volume=enable='lt(t,0.8)':volume=0.2,afade=t=in:st=0.8:d=1.5[bg3];[bg3][tts3]amix=inputs=2:duration=first:dropout_transition=2,afade=t=out:st=10.9:d=0.3[a3];[v0][a0][v1][a1][v2][a2][v3][a3]concat=n=4:v=1:a=1[vout][aout]\\\" -map \\\"[vout]\\\" -map \\\"[aout]\\\" -c:v libx264 -preset medium -crf 18 -pix_fmt yuv420p -c:a aac -b:a 192k \\\"/home/hjj/2601_VPI_V3__shorts_pipline/data/work/2026-02-22/US_video_01/final.mp4\\\"\\nffmpeg version 6.0.1 Copyright (c) 2000-2023 the FFmpeg developers\\n  built with gcc 12.3.0 (conda-forge gcc 12.3.0-2)\\n  configuration: --prefix=/home/hjj/miniconda3 --cc=/home/conda/feedstock_root/build_artifacts/ffmpeg_1699623786183/_build_env/bin/x86_64-conda-linux-gnu-cc --cxx=/home/conda/feedstock_root/build_artifacts/ffmpeg_1699623786183/_build_env/bin/x86_64-conda-linux-gnu-c++ --nm=/home/conda/feedstock_root/build_artifacts/ffmpeg_1699623786183/_build_env/bin/x86_64-conda-linux-gnu-nm --ar=/home/conda/feedstock_root/build_artifacts/ffmpeg_1699623786183/_build_env/bin/x86_64-conda-linux-gnu-ar --disable-doc --disable-openssl --enable-demuxer=dash --enable-hardcoded-tables --enable-libfreetype --enable-libfontconfig --enable-libopenh264 --enable-libdav1d --enable-gnutls --enable-libmp3lame --enable-libvpx --enable-libass --enable-pthreads --enable-vaapi --enable-gpl --enable-libx264 --enable-libx265 --enable-libaom --enable-libsvtav1 --enable-libxml2 --enable-pic --enable-shared --disable-static --enable-version3 --enable-zlib --enable-libopus --pkg-config=/home/conda/feedstock_root/build_artifacts/ffmpeg_1699623786183/_build_env/bin/pkg-config\\n  libavutil      58.  2.100 / 58.  2.100\\n  libavcodec     60.  3.100 / 60.  3.100\\n  libavformat    60.  3.100 / 60.  3.100\\n  libavdevice    60.  1.100 / 60.  1.100\\n  libavfilter     9.  3.100 /  9.  3.100\\n  libswscale      7.  1.100 /  7.  1.100\\n  libswresample   4. 10.100 /  4. 10.100\\n  libpostproc    57.  1.100 / 57.  1.100\\nInput #0, mov,mp4,m4a,3gp,3g2,mj2, from '/home/hjj/2601_VPI_V3__shorts_pipline/data/work/2026-02-22/US_video_01/outputs/highlight_1.mp4':\\n  Metadata:\\n    major_brand     : isom\\n    minor_version   : 512\\n    compatible_brands: isomiso2mp41\\n    encoder         : Lavf60.3.100\\n  Duration: 00:00:11.20, start: 0.000000, bitrate: 994 kb/s\\n  Stream #0:0[0x1](eng): Video: vp9 (Profile 0) (vp09 / 0x39307076), yuv420p(tv, bt709), 594x1080, 593 kb/s, SAR 1:1 DAR 11:20, 30 fps, 30 tbr, 16k tbn (default)\\n    Metadata:\\n      handler_name    : VideoHandler\\n      vendor_id       : [0][0][0][0]\\n  Stream #0:1[0x2](eng): Audio: aac (LC) (mp4a / 0x6134706D), 44100 Hz, stereo, fltp, 127 kb/s (default)\\n    Metadata:\\n      handler_name    : ISO Media file produced by Google Inc.\\n      vendor_id       : [0][0][0][0]\\nInput #1, mov,mp4,m4a,3gp,3g2,mj2, from '/home/hjj/2601_VPI_V3__shorts_pipline/data/work/2026-02-22/US_video_01/outputs/highlight_2.mp4':\\n  Metadata:\\n    major_brand     : isom\\n    minor_version   : 512\\n    compatible_brands: isomiso2mp41\\n    encoder         : Lavf60.3.100\\n  Duration: 00:00:11.20, start: 0.000000, bitrate: 267 kb/s\\n  Stream #1:0[0x1](eng): Video: vp9 (Profile 0) (vp09 / 0x39307076), yuv420p(tv, bt709), 608x1080, 102 kb/s, SAR 1:1 DAR 76:135, 30 fps, 30 tbr, 16k tbn (default)\\n    Metadata:\\n      handler_name    : VideoHandler\\n      vendor_id       : [0][0][0][0]\\n  Stream #1:1[0x2](und): Audio: aac (LC) (mp4a / 0x6134706D), 44100 Hz, stereo, fltp, 127 kb/s (default)\\n    Metadata:\\n      handler_name    : ISO Media file produced by Google Inc.\\n      vendor_id       : [0][0][0][0]\\nInput #2, mov,mp4,m4a,3gp,3g2,mj2, from '/home/hjj/2601_VPI_V3__shorts_pipline/data/work/2026-02-22/US_video_01/outputs/highlight_3.mp4':\\n  Metadata:\\n    major_brand     : isom\\n    minor_version   : 512\\n    compatible_brands: isomiso2mp41\\n    encoder         : Lavf60.3.100\\n  Duration: 00:00:11.20, start: 0.000000, bitrate: 641 kb/s\\n  Stream #2:0[0x1](eng): Video: vp9 (Profile 0) (vp09 / 0x39307076), yuv420p(tv, bt709), 608x1080, 500 kb/s, SAR 1:1 DAR 76:135, 30 fps, 30 tbr, 16k tbn (default)\\n    Metadata:\\n      handler_name    : VideoHandler\\n      vendor_id       : [0][0][0][0]\\n  Stream #2:1[0x2](eng): Audio: aac (LC) (mp4a / 0x6134706D), 44100 Hz, stereo, fltp, 127 kb/s (default)\\n    Metadata:\\n      handler_name    : ISO Media file produced by Google Inc.\\n      vendor_id       : [0][0][0][0]\\nInput #3, mov,mp4,m4a,3gp,3g2,mj2, from '/home/hjj/2601_VPI_V3__shorts_pipline/data/work/2026-02-22/US_video_01/outputs/highlight_4.mp4':\\n  Metadata:\\n    major_brand     : isom\\n    minor_version   : 512\\n    compatible_brands: isomiso2mp41\\n    encoder         : Lavf60.3.100\\n  Duration: 00:00:11.20, start: 0.000000, bitrate: 1478 kb/s\\n  Stream #3:0[0x1](eng): Video: vp9 (Profile 0) (vp09 / 0x39307076), yuv420p(tv, bt709), 608x1080, 942 kb/s, SAR 1:1 DAR 76:135, 30 fps, 30 tbr, 16k tbn (default)\\n    Metadata:\\n      handler_name    : VideoHandler\\n      vendor_id       : [0][0][0][0]\\n  Stream #3:1[0x2](und): Audio: aac (LC) (mp4a / 0x6134706D), 44100 Hz, stereo, fltp, 127 kb/s (default)\\n    Metadata:\\n      handler_name    : ISO Media file produced by Google Inc.\\n      vendor_id       : [0][0][0][0]\\n[mp3 @ 0x55a870d42400] Estimating duration from bitrate, this may be inaccurate\\nInput #4, mp3, from '/home/hjj/2601_VPI_V3__shorts_pipline/data/work/2026-02-22/US_video_01/outputs/tts_1.mp3':\\n  Duration: 00:00:02.38, start: 0.000000, bitrate: 48 kb/s\\n  Stream #4:0: Audio: mp3, 24000 Hz, mono, fltp, 48 kb/s\\n[mp3 @ 0x55a870d5b980] Estimating duration from bitrate, this may be inaccurate\\nInput #5, mp3, from '/home/hjj/2601_VPI_V3__shorts_pipline/data/work/2026-02-22/US_video_01/outputs/tts_2.mp3':\\n  Duration: 00:00:02.50, start: 0.000000, bitrate: 48 kb/s\\n  Stream #5:0: Audio: mp3, 24000 Hz, mono, fltp, 48 kb/s\\n[mp3 @ 0x55a870d6e580] Estimating duration from bitrate, this may be inaccurate\\nInput #6, mp3, from '/home/hjj/2601_VPI_V3__shorts_pipline/data/work/2026-02-22/US_video_01/outputs/tts_3.mp3':\\n  Duration: 00:00:02.57, start: 0.000000, bitrate: 48 kb/s\\n  Stream #6:0: Audio: mp3, 24000 Hz, mono, fltp, 48 kb/s\\n[mp3 @ 0x55a870dc0fc0] Estimating duration from bitrate, this may be inaccurate\\nInput #7, mp3, from '/home/hjj/2601_VPI_V3__shorts_pipline/data/work/2026-02-22/US_video_01/outputs/tts_4.mp3':\\n  Duration: 00:00:02.66, start: 0.000000, bitrate: 48 kb/s\\n  Stream #7:0: Audio: mp3, 24000 Hz, mono, fltp, 48 kb/s\\n[AVFilterGraph @ 0x55a870d5af00] No option name near '/home/hjj/2601_VPI_V3__shorts_pipline/data/assets/memomentKkukkkuk.ttf:fontcolor=white:fontsize=if(lt(t,0.8), 85, if(lt(t,1.2), 85-(85-55)*(t-0.8)/0.4, 55)):line_spacing=15:x=(w-text_w)/2:y=if(lt(t,0.8), (h-th)/2, if(lt(t,1.2), (h-th)/2-((h-th)/2-180)*(t-0.8)/0.4, 180)):expansion=none'\\n[AVFilterGraph @ 0x55a870d5af00] Error parsing a filter description around: ,fade=t=out:st=10.9:d=0.3[v2];[6:a]adelay=200|200,aformat=sample_fmts=fltp:sample_rates=44100:channel_layouts=stereo[tts2];[2:a]aformat=sample_fmts=fltp:sample_rates=44100:channel_layouts=stereo,volume=enable='lt(t,0.8)':volume=0.2,afade=t=in:st=0.8:d=1.5[bg2];[bg2][tts2]amix=inputs=2:duration=first:dropout_transition=2,afade=t=out:st=10.9:d=0.3[a2];[3:v]scale=1080:1920:force_original_aspect_ratio=increase,crop=1080:1920,fps=30,format=yuv420p,setsar=1,drawbox=y=0:color=black@0.6:width=iw:height=ih:t=fill:enable='lt(t,1.2)',drawbox=y=130:color=black@0.4:width=iw:height=220:t=fill:enable='gt(t,1.2)',drawtext=text='4. Rappers'\\\\\\\\''\\\\nEmotional Tributes':fontfile='/home/hjj/2601_VPI_V3__shorts_pipline/data/assets/memomentKkukkkuk.ttf':fontcolor=white:fontsize='if(lt(t,0.8), 85, if(lt(t,1.2), 85-(85-55)*(t-0.8)/0.4, 55))':line_spacing=15:x=(w-text_w)/2:y='if(lt(t,0.8), (h-th)/2, if(lt(t,1.2), (h-th)/2-((h-th)/2-180)*(t-0.8)/0.4, 180))':expansion=none,fade=t=out:st=10.9:d=0.3[v3];[7:a]adelay=200|200,aformat=sample_fmts=fltp:sample_rates=44100:channel_layouts=stereo[tts3];[3:a]aformat=sample_fmts=fltp:sample_rates=44100:channel_layouts=stereo,volume=enable='lt(t,0.8)':volume=0.2,afade=t=in:st=0.8:d=1.5[bg3];[bg3][tts3]amix=inputs=2:duration=first:dropout_transition=2,afade=t=out:st=10.9:d=0.3[a3];[v0][a0][v1][a1][v2][a2][v3][a3]concat=n=4:v=1:a=1[vout][aout]\\n[AVFilterGraph @ 0x55a870d5af00] Error parsing filterchain '[1:v]scale=1080:1920:force_original_aspect_ratio=increase,crop=1080:1920,fps=30,format=yuv420p,setsar=1,drawbox=y=0:color=black@0.6:width=iw:height=ih:t=fill:enable='lt(t,1.2)',drawbox=y=130:color=black@0.4:width=iw:height=220:t=fill:enable='gt(t,1.2)',drawtext=text='2. Music'\\\\\\\\''s Final\\\\nBetrayal':fontfile='/home/hjj/2601_VPI_V3__shorts_pipline/data/assets/memomentKkukkkuk.ttf':fontcolor=white:fontsize='if(lt(t,0.8), 85, if(lt(t,1.2), 85-(85-55)*(t-0.8)/0.4, 55))':line_spacing=15:x=(w-text_w)/2:y='if(lt(t,0.8), (h-th)/2, if(lt(t,1.2), (h-th)/2-((h-th)/2-180)*(t-0.8)/0.4, 180))':expansion=none,fade=t=out:st=10.9:d=0.3[v1];[5:a]adelay=200|200,aformat=sample_fmts=fltp:sample_rates=44100:channel_layouts=stereo[tts1];[1:a]aformat=sample_fmts=fltp:sample_rates=44100:channel_layouts=stereo,volume=enable='lt(t,0.8)':volume=0.2,afade=t=in:st=0.8:d=1.5[bg1];[bg1][tts1]amix=inputs=2:duration=first:dropout_transition=2,afade=t=out:st=10.9:d=0.3[a1];[2:v]scale=1080:1920:force_original_aspect_ratio=increase,crop=1080:1920,fps=30,format=yuv420p,setsar=1,drawbox=y=0:color=black@0.6:width=iw:height=ih:t=fill:enable='lt(t,1.2)',drawbox=y=130:color=black@0.4:width=iw:height=220:t=fill:enable='gt(t,1.2)',drawtext=text='3. Ace'\\\\\\\\''s Unheard\\\\nFarewell':fontfile='/home/hjj/2601_VPI_V3__shorts_pipline/data/assets/memomentKkukkkuk.ttf':fontcolor=white:fontsize='if(lt(t,0.8), 85, if(lt(t,1.2), 85-(85-55)*(t-0.8)/0.4, 55))':line_spacing=15:x=(w-text_w)/2:y='if(lt(t,0.8), (h-th)/2, if(lt(t,1.2), (h-th)/2-((h-th)/2-180)*(t-0.8)/0.4, 180))':expansion=none,fade=t=out:st=10.9:d=0.3[v2];[6:a]adelay=200|200,aformat=sample_fmts=fltp:sample_rates=44100:channel_layouts=stereo[tts2];[2:a]aformat=sample_fmts=fltp:sample_rates=44100:channel_layouts=stereo,volume=enable='lt(t,0.8)':volume=0.2,afade=t=in:st=0.8:d=1.5[bg2];[bg2][tts2]amix=inputs=2:duration=first:dropout_transition=2,afade=t=out:st=10.9:d=0.3[a2];[3:v]scale=1080:1920:force_original_aspect_ratio=increase,crop=1080:1920,fps=30,format=yuv420p,setsar=1,drawbox=y=0:color=black@0.6:width=iw:height=ih:t=fill:enable='lt(t,1.2)',drawbox=y=130:color=black@0.4:width=iw:height=220:t=fill:enable='gt(t,1.2)',drawtext=text='4. Rappers'\\\\\\\\''\\\\nEmotional Tributes':fontfile='/home/hjj/2601_VPI_V3__shorts_pipline/data/assets/memomentKkukkkuk.ttf':fontcolor=white:fontsize='if(lt(t,0.8), 85, if(lt(t,1.2), 85-(85-55)*(t-0.8)/0.4, 55))':line_spacing=15:x=(w-text_w)/2:y='if(lt(t,0.8), (h-th)/2, if(lt(t,1.2), (h-th)/2-((h-th)/2-180)*(t-0.8)/0.4, 180))':expansion=none,fade=t=out:st=10.9:d=0.3[v3];[7:a]adelay=200|200,aformat=sample_fmts=fltp:sample_rates=44100:channel_layouts=stereo[tts3];[3:a]aformat=sample_fmts=fltp:sample_rates=44100:channel_layouts=stereo,volume=enable='lt(t,0.8)':volume=0.2,afade=t=in:st=0.8:d=1.5[bg3];[bg3][tts3]amix=inputs=2:duration=first:dropout_transition=2,afade=t=out:st=10.9:d=0.3[a3];[v0][a0][v1][a1][v2][a2][v3][a3]concat=n=4:v=1:a=1[vout][aout]' around: ,fade=t=out:st=10.9:d=0.3[v2];[6:a]adelay=200|200,aformat=sample_fmts=fltp:sample_rates=44100:channel_layouts=stereo[tts2];[2:a]aformat=sample_fmts=fltp:sample_rates=44100:channel_layouts=stereo,volume=enable='lt(t,0.8)':volume=0.2,afade=t=in:st=0.8:d=1.5[bg2];[bg2][tts2]amix=inputs=2:duration=first:dropout_transition=2,afade=t=out:st=10.9:d=0.3[a2];[3:v]scale=1080:1920:force_original_aspect_ratio=increase,crop=1080:1920,fps=30,format=yuv420p,setsar=1,drawbox=y=0:color=black@0.6:width=iw:height=ih:t=fill:enable='lt(t,1.2)',drawbox=y=130:color=black@0.4:width=iw:height=220:t=fill:enable='gt(t,1.2)',drawtext=text='4. Rappers'\\\\\\\\''\\\\nEmotional Tributes':fontfile='/home/hjj/2601_VPI_V3__shorts_pipline/data/assets/memomentKkukkkuk.ttf':fontcolor=white:fontsize='if(lt(t,0.8), 85, if(lt(t,1.2), 85-(85-55)*(t-0.8)/0.4, 55))':line_spacing=15:x=(w-text_w)/2:y='if(lt(t,0.8), (h-th)/2, if(lt(t,1.2), (h-th)/2-((h-th)/2-180)*(t-0.8)/0.4, 180))':expansion=none,fade=t=out:st=10.9:d=0.3[v3];[7:a]adelay=200|200,aformat=sample_fmts=fltp:sample_rates=44100:channel_layouts=stereo[tts3];[3:a]aformat=sample_fmts=fltp:sample_rates=44100:channel_layouts=stereo,volume=enable='lt(t,0.8)':volume=0.2,afade=t=in:st=0.8:d=1.5[bg3];[bg3][tts3]amix=inputs=2:duration=first:dropout_transition=2,afade=t=out:st=10.9:d=0.3[a3];[v0][a0][v1][a1][v2][a2][v3][a3]concat=n=4:v=1:a=1[vout][aout]\\nError initializing complex filters.\\nInvalid argument\\n\"}"
          }
        },
        {
          "slot": 2,
          "status": "DONE",
          "error": "[US] 트렌드 키워드가 비어 있습니다 (status: ERROR)",
          "originalKeyword": "alysa liu",
          "queryEngineering": {
            "target_language_confirmed": "English",
            "clusters": [
              {
                "name": "Athlete Profile & Performance",
                "logic": "This cluster focuses on Alysa Liu's specific figure skating routines, performances, and career highlights, appealing to viewers interested in her technical skills and artistic expression on the ice."
              },
              {
                "name": "Olympic Journey & Future Prospects",
                "logic": "This cluster targets searches related to Alysa Liu's participation in the Olympics, particularly the upcoming 2026 Winter Olympics, including potential comeback stories and medal aspirations."
              },
              {
                "name": "Viral Moments & Media Coverage",
                "logic": "This cluster captures interest in memorable or viral moments from Alysa Liu's career, including specific performances, reactions, and how she is covered by major sports media outlets."
              }
            ],
            "validationHistory": [
              {
                "q": "Alysa Liu|figure skating|highlights|full routine|free skate -HeartsnReels -freedom era -skating edit",
                "theme": "Alysa Liu's Figure Skating Performances and Career Highlights",
                "status": "FAIL",
                "reason": "검색 결과 부족 (검색됨: 1개 / 최소 필요: 3개)"
              },
              {
                "q": "Alysa Liu|Olympics 2026|comeback|Team USA|gold medal -Paralympic -Paralympics -Paralympians",
                "theme": "Alysa Liu's Olympic Comeback and 2026 Winter Olympics Prospects",
                "status": "PASS"
              }
            ]
          },
          "keyword": "Alysa Liu|Olympics 2026|comeback|Team USA|gold medal -Paralympic -Paralympics -Paralympians",
          "selectedSourceVideos": [
            {
              "videoId": "xm6DNr4IbXE",
              "title": "Alysa LIU won gold but she is cheering and comforting a young girl who just got her first medal 🥹",
              "channelTitle": "POPVEIN",
              "predicted7d": 3972348,
              "delta": 2569331
            },
            {
              "videoId": "8hZ-bwlCAzY",
              "title": "Alysa Liu’s Shocking Olympic Comeback Wins Gold ⛸️🔥 #alysaliu #olympics2026 #teamusa",
              "channelTitle": "Loyal Luxury",
              "predicted7d": 105445,
              "delta": 94799
            },
            {
              "videoId": "uEUJl6HvASc",
              "title": "Alysa Liu Ended a 24-Year Olympic Curse with This Gold Medal 🥇 #youtubeshorts #shorts #figureskating",
              "channelTitle": "Sarah Sports",
              "predicted7d": 152715,
              "delta": 65326
            },
            {
              "videoId": "He2OFPj9ank",
              "title": "Alysa Liu Pancake Art! 🥞✨ #milanocortina2026 #figureskating #pancakeart",
              "channelTitle": "The Joy of Pancakes",
              "predicted7d": 64387,
              "delta": 63088
            }
          ],
          "selectedTheme": "Unknown",
          "videoProcessor": {
            "status": "DONE"
          },
          "outputFile": "final.mp4",
          "outputFileAbs": "/home/hjj/2601_VPI_V3__shorts_pipline/data/work/2026-02-22/US_video_02/final.mp4",
          "uploadMeta": {
            "title": "Alysa Liu's Epic Olympic Gold Comeback!",
            "description": "2026-02-22_US_2\nWitness Alysa Liu's incredible journey to Olympic gold in 2026! After a stunning comeback, she's bringing glory back to Team USA. Don't miss this inspiring story of triumph and dedication!",
            "tags": [
              "Alysa Liu",
              "Olympics 2026",
              "Team USA",
              "Figure Skating",
              "Gold Medal",
              "Comeback",
              "Sports",
              "Inspiration",
              "Shorts"
            ]
          },
          "upload": {
            "status": "DONE",
            "youtubeVideoId": "MNUXiRJDr1A"
          },
          "updatedAt": "2026-02-22T06:40:38.457Z"
        }
      ],
      "status": "RUNNING",
      "updatedAt": "2026-02-22T06:40:38.466Z"
    },
    "MX": {
      "region": "MX",
      "trends": {
        "status": "DONE",
        "lastError": "Trend API 오류(503): {\"region\":\"MX\",\"days\":7,\"keywords\":[\"Intensa-Mente 2\",\"Ángela Aguilar y Christian Nodal\",\"Liga MX\",\"Checo Pérez\",\"Tendencias de TikTok\",\"Recetas virales\",\"Estrenos de cine\",\"Música viral\",\"Famosos México\",\"Viajes México\",\"Comida mexicana\",\"Memes virales\",\"Challenges virales\",\"Chivas\",\"América\",\"Peso Pluma\",\"Bad Bunny\",\"Karol G\",\"Life hacks\",\"Maquillaje tendencias\",\"Moda verano\",\"Conciertos México\",\"Series populares\",\"Deportes extremos\",\"Animales graciosos\"],\"debug\":{\"rawItems\":0,\"candidates\":0,\"trafficAvg\":null,\"trafficMax\":null,\"llmUsed\":true,\"python\":{\"pythonOk\":false,\"reason\":\"PYTHON_FAILED\",\"attempts\":1,\"circuit\":{\"consecutive429\":0,\"openUntilMs\":0},\"error\":\"pytrends_fetch 실패(code=1): Traceback (most recent call last):\\n  File \\\"/home/hjj/2601_VPI_V3__shorts_pipline/services/trend-service/pytrends_fetch.py\\\", line 28, in <module>\\n    from pytrends.request import TrendReq\\nModuleNotFoundError: No module named 'pytrends'\\n\"}}}",
        "keywords": [
          "therian",
          "willie colón",
          "poppy playtime",
          "toy story 5",
          "cruz azul vs chivas",
          "brawl stars",
          "omenaso",
          "silvio gamer",
          "mi verdad oculta"
        ],
        "updatedAt": "2026-02-22T06:40:50.460Z"
      },
      "videos": [
        {
          "slot": 1,
          "status": "DONE",
          "error": "[MX] 트렌드 키워드가 비어 있습니다 (status: ERROR)",
          "originalKeyword": "willie colón",
          "queryEngineering": {
            "target_language_confirmed": "Spanish",
            "clusters": [
              {
                "name": "Música y Discografía",
                "logic": "Este cluster se enfoca en la producción musical de Willie Colón, sus géneros (salsa), canciones más populares, álbumes y colaboraciones clave con otros artistas y sellos discográficos."
              },
              {
                "name": "Noticias y Rumores",
                "logic": "Este cluster aborda las búsquedas relacionadas con la actualidad de Willie Colón, incluyendo rumores de fallecimiento, estado de salud y últimas noticias relevantes."
              },
              {
                "name": "Biografía y Legado",
                "logic": "Este cluster explora la vida, carrera, impacto cultural, trayectoria histórica y el legado duradero de Willie Colón en la música latina y la salsa."
              }
            ],
            "validationHistory": [
              {
                "q": "Willie Colón|salsa|canciones|éxitos|Héctor Lavoe|Rubén Blades|Fania All Stars -romantica -mix -playlist",
                "theme": "Música, Éxitos y Colaboraciones",
                "status": "PASS"
              }
            ]
          },
          "keyword": "Willie Colón|salsa|canciones|éxitos|Héctor Lavoe|Rubén Blades|Fania All Stars -romantica -mix -playlist",
          "selectedSourceVideos": [
            {
              "videoId": "c0Q93URVgg4",
              "title": "¿Por qué se separaron Willie Colón y Rubén Blades? | Salserísimo Perú",
              "channelTitle": "Salserísimo Perú",
              "predicted7d": 233709,
              "delta": 223324
            },
            {
              "videoId": "Q0b9ZxgKkWA",
              "title": "Héctor Lavoe NO quería cantar con Willie Colón | Salserísimo Perú",
              "channelTitle": "Salserísimo Perú",
              "predicted7d": 209489,
              "delta": 200276
            },
            {
              "videoId": "EQoLIC7vQdc",
              "title": "Willie Colón y el dolor por la muerte de Héctor Lavoe | Salserísimo Perú",
              "channelTitle": "Salserísimo Perú",
              "predicted7d": 77178,
              "delta": 71071
            },
            {
              "videoId": "bi2QvQwZJOQ",
              "title": "The Last Fight: la película de Willie Colón y Rubén Blades que hundió a Fania | Salserísimo Perú",
              "channelTitle": "Salserísimo Perú",
              "predicted7d": 36728,
              "delta": 34940
            }
          ],
          "selectedTheme": "Unknown",
          "videoProcessor": {
            "status": "DONE"
          },
          "outputFile": "final.mp4",
          "outputFileAbs": "/home/hjj/2601_VPI_V3__shorts_pipline/data/work/2026-02-22/MX_video_01/final.mp4",
          "uploadMeta": {
            "title": "Willie Colón: Secretos de la Salsa Dura",
            "description": "2026-02-22_MX_1\nDescubre los secretos detrás de la leyenda de Willie Colón. Exploramos sus polémicas separaciones con Rubén Blades, la verdad sobre Héctor Lavoe y cómo una película casi destruye Fania. ¡La salsa como nunca antes la habías visto!",
            "tags": [
              "Willie Colón",
              "Salsa",
              "Héctor Lavoe",
              "Rubén Blades",
              "Fania All Stars",
              "Historia de la Salsa",
              "Música Latina",
              "Salsa Dura"
            ]
          },
          "upload": {
            "status": "DONE",
            "youtubeVideoId": "gJePobskPCs"
          },
          "updatedAt": "2026-02-22T06:42:05.672Z"
        },
        {
          "slot": 2,
          "status": "DONE",
          "error": "Video Processor API 오류(500): {\"ok\":false,\"error\":\"Command failed: ffmpeg -y -i \\\"/home/hjj/2601_VPI_V3__shorts_pipline/data/work/2026-02-22/MX_video_02/outputs/highlight_1.mp4\\\" -i \\\"/home/hjj/2601_VPI_V3__shorts_pipline/data/work/2026-02-22/MX_video_02/outputs/highlight_2.mp4\\\" -i \\\"/home/hjj/2601_VPI_V3__shorts_pipline/data/work/2026-02-22/MX_video_02/outputs/highlight_3.mp4\\\" -i \\\"/home/hjj/2601_VPI_V3__shorts_pipline/data/work/2026-02-22/MX_video_02/outputs/highlight_4.mp4\\\" -i \\\"/home/hjj/2601_VPI_V3__shorts_pipline/data/work/2026-02-22/MX_video_02/outputs/tts_1.mp3\\\" -i \\\"/home/hjj/2601_VPI_V3__shorts_pipline/data/work/2026-02-22/MX_video_02/outputs/tts_2.mp3\\\" -i \\\"/home/hjj/2601_VPI_V3__shorts_pipline/data/work/2026-02-22/MX_video_02/outputs/tts_3.mp3\\\" -i \\\"/home/hjj/2601_VPI_V3__shorts_pipline/data/work/2026-02-22/MX_video_02/outputs/tts_4.mp3\\\" -filter_complex \\\"[0:v]scale=1080:1920:force_original_aspect_ratio=increase,crop=1080:1920,fps=30,format=yuv420p,drawbox=y=0:color=black@0.6:width=iw:height=ih:t=fill:enable='lt(t,1.2)',drawbox=y=130:color=black@0.4:width=iw:height=220:t=fill:enable='gt(t,1.2)',drawtext=text='1. ¿Qué es ser\\\\ntherian?':fontfile='/home/hjj/2601_VPI_V3__shorts_pipline/data/assets/memomentKkukkkuk.ttf':fontcolor=white:fontsize='if(lt(t,0.8), 85, if(lt(t,1.2), 85-(85-55)*(t-0.8)/0.4, 55))':line_spacing=15:x=(w-text_w)/2:y='if(lt(t,0.8), (h-th)/2, if(lt(t,1.2), (h-th)/2-((h-th)/2-180)*(t-0.8)/0.4, 180))':expansion=none,fade=t=out:st=10.9:d=0.3[v0];[4:a]adelay=200|200,aformat=sample_fmts=fltp:sample_rates=44100:channel_layouts=stereo[tts0];[0:a]aformat=sample_fmts=fltp:sample_rates=44100:channel_layouts=stereo,volume=enable='lt(t,0.8)':volume=0.2,afade=t=in:st=0.8:d=1.5[bg0];[bg0][tts0]amix=inputs=2:duration=first:dropout_transition=2,afade=t=out:st=10.9:d=0.3[a0];[1:v]scale=1080:1920:force_original_aspect_ratio=increase,crop=1080:1920,fps=30,format=yuv420p,drawbox=y=0:color=black@0.6:width=iw:height=ih:t=fill:enable='lt(t,1.2)',drawbox=y=130:color=black@0.4:width=iw:height=220:t=fill:enable='gt(t,1.2)',drawtext=text='2. Tu verdadera\\\\nforma.':fontfile='/home/hjj/2601_VPI_V3__shorts_pipline/data/assets/memomentKkukkkuk.ttf':fontcolor=white:fontsize='if(lt(t,0.8), 85, if(lt(t,1.2), 85-(85-55)*(t-0.8)/0.4, 55))':line_spacing=15:x=(w-text_w)/2:y='if(lt(t,0.8), (h-th)/2, if(lt(t,1.2), (h-th)/2-((h-th)/2-180)*(t-0.8)/0.4, 180))':expansion=none,fade=t=out:st=10.9:d=0.3[v1];[5:a]adelay=200|200,aformat=sample_fmts=fltp:sample_rates=44100:channel_layouts=stereo[tts1];[1:a]aformat=sample_fmts=fltp:sample_rates=44100:channel_layouts=stereo,volume=enable='lt(t,0.8)':volume=0.2,afade=t=in:st=0.8:d=1.5[bg1];[bg1][tts1]amix=inputs=2:duration=first:dropout_transition=2,afade=t=out:st=10.9:d=0.3[a1];[2:v]scale=1080:1920:force_original_aspect_ratio=increase,crop=1080:1920,fps=30,format=yuv420p,drawbox=y=0:color=black@0.6:width=iw:height=ih:t=fill:enable='lt(t,1.2)',drawbox=y=130:color=black@0.4:width=iw:height=220:t=fill:enable='gt(t,1.2)',drawtext=text='3. La conexión\\\\nanimal.':fontfile='/home/hjj/2601_VPI_V3__shorts_pipline/data/assets/memomentKkukkkuk.ttf':fontcolor=white:fontsize='if(lt(t,0.8), 85, if(lt(t,1.2), 85-(85-55)*(t-0.8)/0.4, 55))':line_spacing=15:x=(w-text_w)/2:y='if(lt(t,0.8), (h-th)/2, if(lt(t,1.2), (h-th)/2-((h-th)/2-180)*(t-0.8)/0.4, 180))':expansion=none,fade=t=out:st=10.9:d=0.3[v2];[6:a]adelay=200|200,aformat=sample_fmts=fltp:sample_rates=44100:channel_layouts=stereo[tts2];[2:a]aformat=sample_fmts=fltp:sample_rates=44100:channel_layouts=stereo,volume=enable='lt(t,0.8)':volume=0.2,afade=t=in:st=0.8:d=1.5[bg2];[bg2][tts2]amix=inputs=2:duration=first:dropout_transition=2,afade=t=out:st=10.9:d=0.3[a2];[3:v]scale=1080:1920:force_original_aspect_ratio=increase,crop=1080:1920,fps=30,format=yuv420p,drawbox=y=0:color=black@0.6:width=iw:height=ih:t=fill:enable='lt(t,1.2)',drawbox=y=130:color=black@0.4:width=iw:height=220:t=fill:enable='gt(t,1.2)',drawtext=text='4. Despierta tu\\\\nespíritu.':fontfile='/home/hjj/2601_VPI_V3__shorts_pipline/data/assets/memomentKkukkkuk.ttf':fontcolor=white:fontsize='if(lt(t,0.8), 85, if(lt(t,1.2), 85-(85-55)*(t-0.8)/0.4, 55))':line_spacing=15:x=(w-text_w)/2:y='if(lt(t,0.8), (h-th)/2, if(lt(t,1.2), (h-th)/2-((h-th)/2-180)*(t-0.8)/0.4, 180))':expansion=none,fade=t=out:st=10.9:d=0.3[v3];[7:a]adelay=200|200,aformat=sample_fmts=fltp:sample_rates=44100:channel_layouts=stereo[tts3];[3:a]aformat=sample_fmts=fltp:sample_rates=44100:channel_layouts=stereo,volume=enable='lt(t,0.8)':volume=0.2,afade=t=in:st=0.8:d=1.5[bg3];[bg3][tts3]amix=inputs=2:duration=first:dropout_transition=2,afade=t=out:st=10.9:d=0.3[a3];[v0][a0][v1][a1][v2][a2][v3][a3]concat=n=4:v=1:a=1[vout][aout]\\\" -map \\\"[vout]\\\" -map \\\"[aout]\\\" -c:v libx264 -preset medium -crf 18 -pix_fmt yuv420p -c:a aac -b:a 192k \\\"/home/hjj/2601_VPI_V3__shorts_pipline/data/work/2026-02-22/MX_video_02/final.mp4\\\"\\nffmpeg version 6.0.1 Copyright (c) 2000-2023 the FFmpeg developers\\n  built with gcc 12.3.0 (conda-forge gcc 12.3.0-2)\\n  configuration: --prefix=/home/hjj/miniconda3 --cc=/home/conda/feedstock_root/build_artifacts/ffmpeg_1699623786183/_build_env/bin/x86_64-conda-linux-gnu-cc --cxx=/home/conda/feedstock_root/build_artifacts/ffmpeg_1699623786183/_build_env/bin/x86_64-conda-linux-gnu-c++ --nm=/home/conda/feedstock_root/build_artifacts/ffmpeg_1699623786183/_build_env/bin/x86_64-conda-linux-gnu-nm --ar=/home/conda/feedstock_root/build_artifacts/ffmpeg_1699623786183/_build_env/bin/x86_64-conda-linux-gnu-ar --disable-doc --disable-openssl --enable-demuxer=dash --enable-hardcoded-tables --enable-libfreetype --enable-libfontconfig --enable-libopenh264 --enable-libdav1d --enable-gnutls --enable-libmp3lame --enable-libvpx --enable-libass --enable-pthreads --enable-vaapi --enable-gpl --enable-libx264 --enable-libx265 --enable-libaom --enable-libsvtav1 --enable-libxml2 --enable-pic --enable-shared --disable-static --enable-version3 --enable-zlib --enable-libopus --pkg-config=/home/conda/feedstock_root/build_artifacts/ffmpeg_1699623786183/_build_env/bin/pkg-config\\n  libavutil      58.  2.100 / 58.  2.100\\n  libavcodec     60.  3.100 / 60.  3.100\\n  libavformat    60.  3.100 / 60.  3.100\\n  libavdevice    60.  1.100 / 60.  1.100\\n  libavfilter     9.  3.100 /  9.  3.100\\n  libswscale      7.  1.100 /  7.  1.100\\n  libswresample   4. 10.100 /  4. 10.100\\n  libpostproc    57.  1.100 / 57.  1.100\\nInput #0, mov,mp4,m4a,3gp,3g2,mj2, from '/home/hjj/2601_VPI_V3__shorts_pipline/data/work/2026-02-22/MX_video_02/outputs/highlight_1.mp4':\\n  Metadata:\\n    major_brand     : isom\\n    minor_version   : 512\\n    compatible_brands: isomiso2mp41\\n    encoder         : Lavf60.3.100\\n  Duration: 00:00:11.20, start: 0.000000, bitrate: 962 kb/s\\n  Stream #0:0[0x1](eng): Video: vp9 (Profile 0) (vp09 / 0x39307076), yuv420p(tv, bt709), 608x1080, 828 kb/s, SAR 1:1 DAR 76:135, 30 fps, 30 tbr, 16k tbn (default)\\n    Metadata:\\n      handler_name    : VideoHandler\\n      vendor_id       : [0][0][0][0]\\n  Stream #0:1[0x2](eng): Audio: aac (LC) (mp4a / 0x6134706D), 44100 Hz, stereo, fltp, 127 kb/s (default)\\n    Metadata:\\n      handler_name    : ISO Media file produced by Google Inc.\\n      vendor_id       : [0][0][0][0]\\nInput #1, mov,mp4,m4a,3gp,3g2,mj2, from '/home/hjj/2601_VPI_V3__shorts_pipline/data/work/2026-02-22/MX_video_02/outputs/highlight_2.mp4':\\n  Metadata:\\n    major_brand     : isom\\n    minor_version   : 512\\n    compatible_brands: isomiso2mp41\\n    encoder         : Lavf60.3.100\\n  Duration: 00:00:11.20, start: 0.000000, bitrate: 1141 kb/s\\n  Stream #1:0[0x1](eng): Video: vp9 (Profile 0) (vp09 / 0x39307076), yuv420p(tv, bt709), 608x1080, 996 kb/s, SAR 1:1 DAR 76:135, 30 fps, 30 tbr, 16k tbn (default)\\n    Metadata:\\n      handler_name    : VideoHandler\\n      vendor_id       : [0][0][0][0]\\n  Stream #1:1[0x2](eng): Audio: aac (LC) (mp4a / 0x6134706D), 44100 Hz, stereo, fltp, 127 kb/s (default)\\n    Metadata:\\n      handler_name    : ISO Media file produced by Google Inc.\\n      vendor_id       : [0][0][0][0]\\nInput #2, mov,mp4,m4a,3gp,3g2,mj2, from '/home/hjj/2601_VPI_V3__shorts_pipline/data/work/2026-02-22/MX_video_02/outputs/highlight_3.mp4':\\n  Metadata:\\n    major_brand     : isom\\n    minor_version   : 512\\n    compatible_brands: isomiso2mp41\\n    encoder         : Lavf60.3.100\\n  Duration: 00:00:05.20, start: 0.000000, bitrate: 506 kb/s\\n  Stream #2:0[0x1](eng): Video: vp9 (Profile 0) (vp09 / 0x39307076), yuv420p(tv, smpte170m/smpte170m/bt709), 608x1080, 369 kb/s, SAR 1:1 DAR 76:135, 30 fps, 30 tbr, 16k tbn (default)\\n    Metadata:\\n      handler_name    : VideoHandler\\n      vendor_id       : [0][0][0][0]\\n  Stream #2:1[0x2](eng): Audio: aac (LC) (mp4a / 0x6134706D), 44100 Hz, stereo, fltp, 128 kb/s (default)\\n    Metadata:\\n      handler_name    : ISO Media file produced by Google Inc.\\n      vendor_id       : [0][0][0][0]\\nInput #3, mov,mp4,m4a,3gp,3g2,mj2, from '/home/hjj/2601_VPI_V3__shorts_pipline/data/work/2026-02-22/MX_video_02/outputs/highlight_4.mp4':\\n  Metadata:\\n    major_brand     : isom\\n    minor_version   : 512\\n    compatible_brands: isomiso2avc1mp41\\n    encoder         : Lavf60.3.100\\n  Duration: 00:00:11.20, start: 0.000000, bitrate: 1676 kb/s\\n  Stream #3:0[0x1](und): Video: h264 (High) (avc1 / 0x31637661), yuv420p(tv, bt709, progressive), 720x900 [SAR 1:1 DAR 4:5], 1207 kb/s, 30 fps, 30 tbr, 15360 tbn (default)\\n    Metadata:\\n      handler_name    : ISO Media file produced by Google Inc.\\n      vendor_id       : [0][0][0][0]\\n  Stream #3:1[0x2](und): Audio: aac (LC) (mp4a / 0x6134706D), 44100 Hz, stereo, fltp, 127 kb/s (default)\\n    Metadata:\\n      handler_name    : ISO Media file produced by Google Inc.\\n      vendor_id       : [0][0][0][0]\\n[mp3 @ 0x559611763f40] Estimating duration from bitrate, this may be inaccurate\\nInput #4, mp3, from '/home/hjj/2601_VPI_V3__shorts_pipline/data/work/2026-02-22/MX_video_02/outputs/tts_1.mp3':\\n  Duration: 00:00:02.16, start: 0.000000, bitrate: 48 kb/s\\n  Stream #4:0: Audio: mp3, 24000 Hz, mono, fltp, 48 kb/s\\n[mp3 @ 0x5596117c58c0] Estimating duration from bitrate, this may be inaccurate\\nInput #5, mp3, from '/home/hjj/2601_VPI_V3__shorts_pipline/data/work/2026-02-22/MX_video_02/outputs/tts_2.mp3':\\n  Duration: 00:00:02.21, start: 0.000000, bitrate: 48 kb/s\\n  Stream #5:0: Audio: mp3, 24000 Hz, mono, fltp, 48 kb/s\\n[mp3 @ 0x5596117d34c0] Estimating duration from bitrate, this may be inaccurate\\nInput #6, mp3, from '/home/hjj/2601_VPI_V3__shorts_pipline/data/work/2026-02-22/MX_video_02/outputs/tts_3.mp3':\\n  Duration: 00:00:02.23, start: 0.000000, bitrate: 48 kb/s\\n  Stream #6:0: Audio: mp3, 24000 Hz, mono, fltp, 48 kb/s\\n[mp3 @ 0x559611979a40] Estimating duration from bitrate, this may be inaccurate\\nInput #7, mp3, from '/home/hjj/2601_VPI_V3__shorts_pipline/data/work/2026-02-22/MX_video_02/outputs/tts_4.mp3':\\n  Duration: 00:00:02.35, start: 0.000000, bitrate: 48 kb/s\\n  Stream #7:0: Audio: mp3, 24000 Hz, mono, fltp, 48 kb/s\\nStream mapping:\\n  Stream #0:0 (vp9) -> scale:default\\n  Stream #0:1 (aac) -> aformat:default\\n  Stream #1:0 (vp9) -> scale:default\\n  Stream #1:1 (aac) -> aformat:default\\n  Stream #2:0 (vp9) -> scale:default\\n  Stream #2:1 (aac) -> aformat:default\\n  Stream #3:0 (h264) -> scale:default\\n  Stream #3:1 (aac) -> aformat:default\\n  Stream #4:0 (mp3float) -> adelay:default\\n  Stream #5:0 (mp3float) -> adelay:default\\n  Stream #6:0 (mp3float) -> adelay:default\\n  Stream #7:0 (mp3float) -> adelay:default\\n  concat -> Stream #0:0 (libx264)\\n  concat -> Stream #0:1 (aac)\\nPress [q] to stop, [?] for help\\n[h264 @ 0x559611d9a680] Late SEI is not implemented. Update your FFmpeg version to the newest one from Git. If the problem still occurs, it means that your file has a feature which has not been implemented.\\n[h264 @ 0x559611d9a680] If you want to help, upload a sample of this file to https://streams.videolan.org/upload/ and contact the ffmpeg-devel mailing list. (ffmpeg-devel@ffmpeg.org)\\n[Parsed_concat_60 @ 0x559611965e40] Input link in0:v0 parameters (size 1080x1920, SAR 1:1) do not match the corresponding output link in0:v0 parameters (1080x1920, SAR 9728:9729)\\n[Parsed_concat_60 @ 0x559611965e40] Failed to configure output pad on Parsed_concat_60\\nError reinitializing filters!\\nFailed to inject frame into filter network: Invalid argument\\nError while processing the decoded data for stream #7:0\\nConversion failed!\\n\"}",
          "originalKeyword": "therian",
          "queryEngineering": {
            "target_language_confirmed": "Spanish",
            "clusters": [
              {
                "name": "Explicación y Conceptos Básicos",
                "logic": "Este cluster se enfoca en la definición de 'therian', su significado, la teriantropía y otros términos fundamentales para entender el fenómeno."
              },
              {
                "name": "Comunidad, Prácticas y Experiencias Therian",
                "logic": "Aquí se agrupan los tags relacionados con la vida de los therians, sus comunidades, actividades específicas como el quadrobics y las experiencias personales."
              },
              {
                "name": "Reacciones, Humor y Controversia",
                "logic": "Este cluster aborda la percepción pública de los therians, el contenido viral, el humor asociado y la participación de figuras o medios que comentan sobre el tema."
              }
            ],
            "validationHistory": [
              {
                "q": "therian|que es|explicacion|teriantropia -Humor -Noticias -CarlosAlbertoFuentes",
                "theme": "Explicación y Conceptos Básicos",
                "status": "PASS"
              }
            ]
          },
          "keyword": "therian|que es|explicacion|teriantropia -Humor -Noticias -CarlosAlbertoFuentes",
          "selectedSourceVideos": [
            {
              "videoId": "Q-sdr2lC96M",
              "title": "Que Es Este Parkour de Minecraft?",
              "channelTitle": "Ribdost",
              "predicted7d": 189972,
              "delta": 111259
            },
            {
              "videoId": "v_AxZSdPVFs",
              "title": "No se necesitan años para saber que es la persona correcta 🥹 #gringoylatina #teamspanglish",
              "channelTitle": "Team.spanglish.alexiayantoni",
              "predicted7d": 79933,
              "delta": 73706
            },
            {
              "videoId": "qgJVnxGPgw0",
              "title": "Que es tener moral #frases #motivacion #amor #viral #reflexiones",
              "channelTitle": "Consejo Estoico",
              "predicted7d": 102168,
              "delta": 61861
            },
            {
              "videoId": "ItRI9qe8elw",
              "title": "El hombre que es pobre y acabado es porque no bendice a sus padres ￼#historiass #bendice #padres",
              "channelTitle": "Mateo Virves",
              "predicted7d": 70873,
              "delta": 55149
            }
          ],
          "selectedTheme": "Unknown",
          "videoProcessor": {
            "status": "DONE"
          },
          "outputFile": "final.mp4",
          "outputFileAbs": "/home/hjj/2601_VPI_V3__shorts_pipline/data/work/2026-02-22/MX_video_02/final.mp4",
          "uploadMeta": {
            "title": "Therian: Descubre tu Espíritu Animal",
            "description": "2026-02-22_MX_2\nSumérgete en el fascinante mundo de la teriantropía. Descubre qué significa identificarse con un animal no humano a nivel espiritual o psicológico. ¿Eres un therian o conoces a alguien que lo sea? ¡Comparte tu experiencia!",
            "tags": [
              "therian",
              "teriantropia",
              "queestherian",
              "identidadanimal",
              "espirituanimal",
              "explicaciontherian",
              "comunidadtherian",
              "shorts"
            ]
          },
          "upload": {
            "status": "DONE",
            "youtubeVideoId": "ItokXhSFk_8"
          },
          "updatedAt": "2026-02-22T06:54:51.726Z"
        }
      ],
      "status": "DONE",
      "updatedAt": "2026-02-22T06:54:51.734Z"
    }
  },
  "finishedAt": "2026-02-22T06:54:51.738Z"
}